<svg id="Layer_1" data-name="Layer 1" xmlns="http://www.w3.org/2000/svg" viewBox="0 0 851.98 852.09"><defs><style>.cls-1{fill:#7dc367;}.cls-2{fill:#5dbcca;}.cls-3{fill:#7cc367;}.cls-4{fill:#61becb;}.cls-5{fill:#f3d039;}.cls-6{fill:#60becb;}.cls-7{fill:#d8edd2;}</style></defs><title>healthySprouts</title><path class="cls-1" d="M480.36,429.81c-.47,1.63-.91,3.26-1.41,4.88a24,24,0,0,1-4.32,8.7,7.55,7.55,0,0,1-12-.82,26,26,0,0,1-3.49-9.08c-1.36,1.82-2.57,3.57-3.9,5.21a28.26,28.26,0,0,1-5.79,5.87,5,5,0,0,1-7.4-1.69,16.65,16.65,0,0,1-2.18-6.78c-.41-3-.07-6.06-.27-9.08a18.28,18.28,0,0,0-.55-4.36c-.43-1.36-1.24-1.64-2.42-.84a8.8,8.8,0,0,0-2.36,2.39,26.33,26.33,0,0,0-4,11,57.39,57.39,0,0,0-.29,7.41,3.49,3.49,0,0,1-2.92,3.85,7,7,0,0,1-4.47.15,3.44,3.44,0,0,1-2.38-3.19c-.38-3.62-.62-7.25-.95-11.28-1.07,1.95-1.92,3.62-2.86,5.23-1.8,3.07-3.67,6.1-6.85,7.95a6.38,6.38,0,0,1-8.18-1c-2.95-2.8-3.78-6.46-4.42-10.18-1.44-8.41-1.16-16.88-.72-25.35.09-1.59.2-3.18.33-4.76.06-.68-.07-.89-.84-.69a31.33,31.33,0,0,1-5.29,1.35,4.32,4.32,0,0,1-4.34-2,3.6,3.6,0,0,1,.08-4,6.73,6.73,0,0,1,4-2.61c2-.66,4.07-1.32,6.14-1.84a1.8,1.8,0,0,0,1.49-1.85,84.41,84.41,0,0,1,2.42-12.1c.87-3.1,2.7-3.65,5.58-2.81a9.79,9.79,0,0,1,6.41,5.78,5,5,0,0,1-.33,4.16c-.44,1-.8,2.09-1.26,3.1s-.28,1.44.92,1.36a22.3,22.3,0,0,1,3.37,0,4.52,4.52,0,0,1,4.15,4.76,4.35,4.35,0,0,1-4.39,4.3,55.13,55.13,0,0,0-5.75.17c-.76.09-1,.37-1.1,1.11A118.71,118.71,0,0,0,406,416.8c-.28,5-.59,10,.49,14.9a8.49,8.49,0,0,0,1.1,2.7c1.06,1.74,2.68,1.66,4.57-.17a30.18,30.18,0,0,0,4.54-6.28c.6-1,1-2.24,2.37-2.54.53-.11.33-.6.34-.94.11-3.35,0-6.71.34-10,.29-3.06.61-6.13,1-9.18a128.09,128.09,0,0,1,2.61-13.33,43.1,43.1,0,0,1,5.42-13.22c2.6-4,6.38-4.13,9.43-.81a9.25,9.25,0,0,1,2.51,6.07,3.61,3.61,0,0,1-1.2,2.88c-5.66,5.15-8.09,11.89-9.5,19.14a22.63,22.63,0,0,0-.28,8.08c.07.44-.12,1.06.46,1.19s.73-.42,1-.79c1.66-2,3.18-4.26,5.6-5.49,3.07-1.56,6.19-2,9.23.16,2.46,1.72,3,4.35,3.05,7s-.25,5.6-.41,8.39a37.44,37.44,0,0,0,.21,7.85c.32,2.19,1.46,2.75,3.42,1.73a13.65,13.65,0,0,0,5.88-6.44c.72-1.49.37-3.41.27-5.12a52.5,52.5,0,0,1,.52-8,19,19,0,0,1,1-5.67,5.43,5.43,0,0,1,6.85-3.08,5.68,5.68,0,0,1,3.63,6.73,81.62,81.62,0,0,0-1.61,18.19,10.13,10.13,0,0,0,.84,3.78c.59,1.35,1.76,1.52,2.9.54a8.72,8.72,0,0,0,2.42-4,87.36,87.36,0,0,0,3.71-14.95,35.63,35.63,0,0,1,1.11-6.21c1.14-3.33,3.37-4.24,5.85-4a6.37,6.37,0,0,1,5.62,5.57c.46,5.6-.09,11.21-.12,16.82,0,2.48-.1,5-.15,7.44,0,.25-.1.63.27.69.17,0,.42-.17.57-.32,2.48-2.53,5-5,7.25-7.75a14,14,0,0,1,3.65-3.42,2.08,2.08,0,0,1,2.46-.14,1.94,1.94,0,0,1,.43,2.42c-.84,2.18-2.46,3.82-3.86,5.61-3.45,4.4-6.9,8.81-10.63,13-.93,1-.5,2.59-.67,3.89-.86,6.93-1.85,13.82-4.76,20.25a19.58,19.58,0,0,1-9,9.92c-4,2-7.88.22-10-3.26-2-3.33-1.94-6.93-.92-10.56,1.53-5.44,4.82-9.74,8.86-13.56,1.66-1.58,3.23-3.26,4.86-4.87a3.83,3.83,0,0,0,.84-2.7c.28-4.7.34-9.41.27-14.13,0-.27,0-.55,0-.83Zm-.35,27a19.71,19.71,0,0,0-7.2,11.73,1.06,1.06,0,0,0,.4,1.25c.48.26.91,0,1.29-.29a6.22,6.22,0,0,0,1.56-1.79,29,29,0,0,0,3.78-8.53A4.93,4.93,0,0,0,480,456.78Z"/><path class="cls-2" d="M170.79,411.12c-.1,4.61-.33,9.21-2,13.6a12.76,12.76,0,0,1-11.1,8.29,20,20,0,0,1-13.89-4c-4.83-3.59-8.74-8-10.78-13.83-1.24-3.54.11-6.39,2.28-7.66a3.5,3.5,0,0,1,4.68.52c1.91,2,2.89,4.55,4.24,6.88a17.35,17.35,0,0,0,5.05,6.07c2.45,1.64,4.1.48,4.29-2.17A24.83,24.83,0,0,0,151.72,407c-2.74-6.28-7.17-10.81-14-12.38-4.92-1.14-9.57-.48-13.21,3.48a12.28,12.28,0,0,0-3,7.94,26,26,0,0,0,5.22,17,77.28,77.28,0,0,0,18.73,18.55c4.55,3.12,9.57,5.24,15.25,5.13,3.91-.07,7.22-1.79,10.26-4.08a49.21,49.21,0,0,0,6.51-6.48,9.65,9.65,0,0,1,2.89-2.12c1.69-.84,3.46-1.13,5,.09s1.74,3,1.46,4.85c-.82,5.27-3.48,9.67-6.6,13.85A43.24,43.24,0,0,1,168.36,464c-5.94,3.7-12,3.46-18.09.69a40.26,40.26,0,0,1-10.18-7.06c-6-5.37-10.92-11.68-15.82-18a77.37,77.37,0,0,1-8.44-13.39,41.77,41.77,0,0,1-4.15-12.8,23.7,23.7,0,0,1,5.1-19A28.21,28.21,0,0,1,132,384.78c7.3-1.87,14.62-2.47,21.87.18,6.4,2.34,11.68,6,14.51,12.51A31.55,31.55,0,0,1,170.79,411.12Z"/><path class="cls-1" d="M350.14,414.89a20.08,20.08,0,0,1,.56-3.51c.95-3.57,3.8-4.31,6.91-3.82,3.68.58,4.69,2.08,4.43,5.79-.08,1.11-.31,2.21-.43,3.32-.56,5.15-1.37,10.29-.65,15.49a12.69,12.69,0,0,0,.46,1.89c.72,2.47,1.85,2.07,3.34.88,2.43-1.92,4-4.57,5.7-7.15a2.75,2.75,0,0,0,.24-1.51c0-3.41-.13-6.84.14-10.24.21-2.56.36-5.14.76-7.7.35-2.22.61-4.46.88-6.7.43-3.59,1.07-7.15,1.81-10.69a91.39,91.39,0,0,1,2.42-9.72c.88-2.7,1.56-4.56,5.86-3.85,3.78.63,6.76,3.42,6.48,7-.13,1.59-1.14,2.82-1.69,4.25a99.12,99.12,0,0,0-5.06,20.29,120.85,120.85,0,0,0-1.91,18.4,20.83,20.83,0,0,0,.5,5.16,8,8,0,0,0,.58,1.57c.94,1.82,2,2.12,3.74,1,2.33-1.54,3.81-3.83,5.31-6.09.6-.9,1.16-1.82,1.84-2.66.46-.58,1.1-1.15,1.93-.75a1.84,1.84,0,0,1,.87,2.06,9,9,0,0,1-.94,2.9,58.47,58.47,0,0,1-7.31,11.69,10.81,10.81,0,0,1-7.28,4.26,5.73,5.73,0,0,1-3.94-1.41c-2.34-1.79-3.28-4.4-4-7.12-.09-.35-.15-.72-.24-1.08-.14-.54.17-1.44-.63-1.48-.56,0-.75.84-1.06,1.33a34.61,34.61,0,0,1-7.28,8.77c-2.41,1.93-6.44,1-8.17-1.65a20.53,20.53,0,0,1-2.6-6.8c-.29-1.29-.06-2.67-.81-4a54.6,54.6,0,0,1-3.19,6.19c-1.81,2.7-3.84,5.16-7.13,6.21-4.25,1.35-8.49,0-10.78-3.63a16.18,16.18,0,0,1-2.23-6.31c-.05-.38,0-.85-.45-.92s-.57.4-.77.71a34.76,34.76,0,0,1-6.48,7.47c-2.75,2.28-5.89,4-9.47,4-6.52.05-11.19-3-13.91-9.26-2.06-4.73-1.9-9.65-1.3-14.61a23.31,23.31,0,0,1,4.9-11.83c3.43-4.37,7.81-6.89,13.66-5.84a9.14,9.14,0,0,1,7.28,7.54c.87,7-1.82,12.65-7.18,17.07a43.24,43.24,0,0,1-4.88,3.49c-1.52.93-1.55,2.27-.08,3.38a6.58,6.58,0,0,0,7,.77,21.89,21.89,0,0,0,8.91-7.66c.65-.9,1.21-1.87,1.92-2.71,1.36-1.62,1.33-3.7,1.89-5.57a23.66,23.66,0,0,1,5.79-10.4,9.17,9.17,0,0,1,12.52-.13A24.41,24.41,0,0,1,350.14,414.89Zm-12.23,16.46a10,10,0,0,0,.79,4.1,2,2,0,0,0,3.05.93,7.33,7.33,0,0,0,2.61-2.49c1.55-2.32,2.35-5,3.37-7.53.94-2.38.25-4.25-1.09-6.12-1.68-2.37-3.58-2.46-5.29-.14C338.86,423.48,338.27,427.45,337.91,431.35Zm-32.28-7.77c0,1.32.7,1.65,1.87,1a11.63,11.63,0,0,0,5.11-6.58c.22-.66.45-1.42-.27-1.91a1.82,1.82,0,0,0-2.11.07A11.65,11.65,0,0,0,305.63,423.58Z"/><path class="cls-1" d="M145.77,369.18c-6.31.22-12.1-2.16-17.7-5.15-2.14-1.14-4.26-2.32-6.48-3.3a23.81,23.81,0,0,0-8-1.94,17.76,17.76,0,0,1-2.61-.34,1.75,1.75,0,0,1-1-2.73,22.54,22.54,0,0,1,4.26-4.69,35.51,35.51,0,0,1,10.41-6.11,40.75,40.75,0,0,1,11.8-2.7c9.42-.71,18.24,1.62,26.86,5.06,1.41.57,1.62.48,1.51-1.07a24.17,24.17,0,0,1,5.61-17.51c5.59-6.84,12.82-10.22,21.77-9.19a19.87,19.87,0,0,1,9.35,3.36c1.45,1,1.5,1.65.18,2.81q-5.74,5-11,10.58c-3,3.1-6.15,6-10.28,7.55-2.76,1-5.05.23-5.2-3.5-.22-5.6,4-9.67,8.66-11.78a28.19,28.19,0,0,1,2.78-.9c.48-.16,1.12-.29,1.14-.86a1.32,1.32,0,0,0-1.22-1.31,8.45,8.45,0,0,0-4.4.32c-4.83,2.2-10.82,9.05-10.07,16a24.06,24.06,0,0,0,4.84,11.4c2.63,3.67,5.93,6.72,8.95,10,7.32,8,12.42,17.1,14.33,27.88a50.57,50.57,0,0,1,1,10.68c-.28,6.92-1.41,13.69-4.4,20-1.51,3.21-3.52,6-7,7.52-2.19,1-5.09.44-6.06-1-1.12-1.68-.7-3.43-.32-5.2,1.12-5.19,3.12-10.15,4.17-15.36A49.5,49.5,0,0,0,189,393.92a41.61,41.61,0,0,0-7.6-21.44,88.18,88.18,0,0,0-13.3-15.3,35.64,35.64,0,0,0-15.62-7.73,45.71,45.71,0,0,0-11.93-1.35,6.61,6.61,0,0,0-2.81.75,1.67,1.67,0,0,0-1,1.55,1.64,1.64,0,0,0,1.05,1.52,12.59,12.59,0,0,0,5.44,1c4,.07,8,0,11.91,1.26,3.42,1.09,5.26,3.67,4.9,6.9-.32,2.83-2.07,4.73-4.49,6A17.72,17.72,0,0,1,145.77,369.18Z"/><path class="cls-1" d="M254.39,402.92c0,2.3,0,4.59,0,6.89,0,.79.2,1.06,1,1,2.75-.13,5.51-.23,8.26-.27a51.71,51.71,0,0,1,9,.72c1,.17,1.2-.31,1.13-1.07a57.07,57.07,0,0,1,.32-6.67,54.29,54.29,0,0,1,.86-7.4c.65-3.69,1.28-7.38,2.24-11a76.65,76.65,0,0,1,2.87-8.51c.81-2.05,2.16-2.58,4.67-2a14,14,0,0,1,5.61,2.7c1.66,1.32,1.89,2.47.81,4.32A53.61,53.61,0,0,0,285,400a74.74,74.74,0,0,0-.77,19.12c.92,10.12,3.47,19.77,9.05,28.42a2.78,2.78,0,0,1-.05,3.57c-2.44,3.18-5.49,5.25-9.61,5.46a2.43,2.43,0,0,1-2.42-1.47,58.75,58.75,0,0,1-5.64-16.69c-.68-3.66-1.09-7.36-1.53-11.05-.24-2,.08-4-.46-5.95-.19-.68-.48-1-1-1.05-1.83-.11-3.62-.78-5.48-.55-.95.12-1.83-.35-2.76-.3-3.33.17-6.67.37-10,.53-.63,0-.73.33-.77.88a153.69,153.69,0,0,1-2.8,19.57,63.82,63.82,0,0,1-4.35,14c-.85,1.83-1.56,2.4-3.49,2a17.26,17.26,0,0,1-8.66-4c-1.55-1.43-1.46-2-.25-3.79a33.71,33.71,0,0,0,4.13-9.15,74.58,74.58,0,0,0,3.12-14.08,12.89,12.89,0,0,1,.3-2.17c.34-1.12-.24-.8-.79-.64a84,84,0,0,0-12.5,4.61c-1.71.81-2.48.74-3.65-.74a11.22,11.22,0,0,1-2.73-5.95c-.2-2.19.11-2.67,2.1-3.48a74.67,74.67,0,0,1,12-3.55c1.86-.41,3.74-.77,5.61-1.14a1.09,1.09,0,0,0,1-1.34c-.18-1.67.37-3.31.29-5-.34-6.77-.64-13.54-2.63-20.07a21,21,0,0,0-4.56-8.47,2,2,0,0,1-.34-2.65,13.91,13.91,0,0,1,10.45-6.49c1.43-.21,2.49.69,3.28,2,2.26,3.64,3.18,7.72,3.86,11.84A114.92,114.92,0,0,1,254.39,402.92Z"/><path class="cls-1" d="M733,391.91c1.4,0,2.81-.06,4.21,0,2.69.18,4.31,2.11,4.21,4.91a4.2,4.2,0,0,1-4.5,4.16c-1.82,0-3.64,0-5.47.15a1.18,1.18,0,0,0-1.24,1.17c-.69,4.74-1.42,9.47-1.78,14.25-.25,3.37-.26,6.73-.19,10.09a20.46,20.46,0,0,0,1.11,6.57c.94,2.65,2.95,3,5,1.1a26.27,26.27,0,0,0,4.62-6.22c.37-.63.78-1.26,1.2-1.87a1.56,1.56,0,0,1,1.79-.78,1.84,1.84,0,0,1,1.14,1.76,6.55,6.55,0,0,1-.85,3.63c-2.26,4.71-4.45,9.48-8.35,13.13a7.49,7.49,0,0,1-5.6,2.46,7.34,7.34,0,0,1-5.66-3.3,19,19,0,0,1-2.93-7.54c-.7,0-.7.57-.88.94a34.91,34.91,0,0,1-4.07,6.48,7.56,7.56,0,0,1-12.54-.47,21.48,21.48,0,0,1-3-8.21c-.27-1.7,0-3.4-.35-5.22a4.42,4.42,0,0,0-.75,2.14c-1.18,4.21-2.41,8.38-5.12,12a7.28,7.28,0,0,1-9.73,1.57c-3.25-2.05-4.37-5.46-5.31-8.91-1.6-5.92-1.3-12-1.12-18,.09-3,.19-6.1,1.35-9s3.89-4,7-3.1a5.51,5.51,0,0,1,3.52,6.37,81.82,81.82,0,0,0-1.5,19.19,14.46,14.46,0,0,0,.44,2.31c.21.95.61,2,1.64,2a2.8,2.8,0,0,0,2.44-1.58,31.24,31.24,0,0,0,3.1-8,116.1,116.1,0,0,0,2.48-11.83c.22-1.35.29-2.72.6-4.06.81-3.45,3.61-5.08,7.06-4.08s4.7,3.31,4.27,6.89c-.76,6.43-1.66,12.88-1,19.39a9.89,9.89,0,0,0,1.1,4c.89,1.5,2.05,1.76,3.51.8,2.68-1.76,3.64-4.65,4.88-7.37.84-1.86.63-3.83.65-5.76,0-4.54-.2-9.09,0-13.62a29,29,0,0,1,.48-5.79c.25-1-.2-1.42-1.2-1.15-1.52.41-3,.89-4.55,1.29a4.49,4.49,0,0,1-4.8-2.21,4.07,4.07,0,0,1,1.21-5,10.59,10.59,0,0,1,2.57-1.32c1.82-.65,3.67-1.2,5.53-1.73,2.6-.75,2.48-.74,2.76-3.39A57,57,0,0,1,722.73,380c.8-2.59,2.33-3.33,5.11-2.59a9.76,9.76,0,0,1,6.81,5.91,4.63,4.63,0,0,1-.21,3.78,20,20,0,0,0-1.66,4.57C732.75,391.86,732.83,391.94,733,391.91Z"/><path class="cls-1" d="M542.91,452.17c-3.93-.06-6.83.07-9.62-.71a7.74,7.74,0,0,1-5.67-6.15,9,9,0,0,1-.07-3.54c.64-3.81,3.5-5.32,7-4a37.7,37.7,0,0,0,13.76,2.53c3.35-.07,6.61-.69,9.18-3.26s2.78-5.42-.72-7.69a43.58,43.58,0,0,0-9.13-4.13c-6.29-2.28-12.61-4.54-18-8.64-3.22-2.47-5.95-5.6-6.48-9.86a22.19,22.19,0,0,1,1.45-11,26.5,26.5,0,0,1,6.77-9.89,41.17,41.17,0,0,1,21.35-10.37,29.45,29.45,0,0,1,14.76.82c5.27,1.81,7.93,6.47,8.4,11.6.42,4.67-.55,9.12-1.91,13.55-1,3.1-3.2,4.72-6,5.69a7.55,7.55,0,0,1-6.91-.5,2.89,2.89,0,0,1-1.17-3.07c.61-2.24,1.76-4.28,2.48-6.48a27.53,27.53,0,0,0,1.53-9.52c-.08-2.87-2-4.74-5.1-4.84a18.83,18.83,0,0,0-8.27,1.61,24.88,24.88,0,0,0-11.41,9.53c-2.17,3.46-3.26,7.2-2.27,11.31.71,2.94,2.85,4.84,5.12,6.58,4,3,8.65,4.64,13.23,6.42s9.44,3.15,13.64,5.92c2.64,1.74,4.72,3.92,5.4,7.16.74,3.6-.68,6.58-2.85,9.26-3.85,4.76-9.07,7.46-14.75,9.39A38.06,38.06,0,0,1,542.91,452.17Z"/><path class="cls-3" d="M610.48,417.9a36.57,36.57,0,0,1-4.76,16.59,24.06,24.06,0,0,1-7.92,9.07,15.58,15.58,0,0,1-8.22,2.63c-.86,0-1.11.26-1.12,1.11a96.14,96.14,0,0,0,3.33,27.48,5.39,5.39,0,0,1-1.42,5.42,8.74,8.74,0,0,1-6.92,2.78c-1.6-.05-3.34-2.25-3.57-4.23-.33-2.69-.9-5.35-1.06-8-.08-1.43-.18-2.88-.36-4.28-.35-2.63,0-5.28-.51-7.91a25,25,0,0,1,0-4.06c-.18-9.22-.05-18.44-.06-27.67,0-3.31.36-6.6.35-9.91,0-2.8.38-5.62.52-8.45a2.39,2.39,0,0,1,1.64-2.22,9.13,9.13,0,0,1,6.68.2,1.81,1.81,0,0,1,1.21,2c-.06.9-.22,2.14.57,2.53.48.24,1.21-.94,1.81-1.5,3.8-3.57,10.38-5.42,15.4-2.31,2.57,1.59,3.45,4.28,4.1,7A11.55,11.55,0,0,1,610.48,417.9Zm-9.26,1.93c0-1.76-.21-3-1.51-3.67a3.26,3.26,0,0,0-3.76.64,18.34,18.34,0,0,0-6,9.58c-.76,2.59-1.16,5.2-.05,7.81.81,1.9,1.86,2.17,3.46.89a16.79,16.79,0,0,0,3.89-4.74C599.24,426.94,600.94,423.42,601.22,419.83Z"/><path class="cls-1" d="M640.84,425.89a29,29,0,0,1,.6-6.59c.69-3.7,3.62-5.32,7.2-3.84,4,1.64,4,3.62,3.59,7.48-.33,3.46-1.17,6.88-.26,10.39.44,1.69,1.27,2.93,3,3.31,1.89.41,3.19-.77,4.07-2.13a18.28,18.28,0,0,0,2.62-9.73,21.76,21.76,0,0,0-1.15-7.76c-1.39-4-4.44-5.59-8.35-4.58a19.22,19.22,0,0,0-2.77.94c-.92.4-1.89.92-2.71.09s-.57-1.9-.23-2.85c1.37-3.87,4.26-5.82,8.2-6.56,8.39-1.59,15,4.48,16.55,11.51,1.93,8.6,1,16.74-4,24.15a14.15,14.15,0,0,1-11.5,6.44c-5.4.25-9.35-2.37-12-7A26,26,0,0,1,640.84,425.89Z"/><path class="cls-1" d="M639.7,412.33a5.31,5.31,0,0,1-3.45,5.51,24.47,24.47,0,0,0-6.93,4.39,14.52,14.52,0,0,0-4.22,8.32,41.89,41.89,0,0,0-.62,11.67c.25,2.87-.52,3.62-3.31,4.4a7.43,7.43,0,0,1-4.33-.12,2.75,2.75,0,0,1-2-2.22c-.35-1.94-.45-3.93-.61-5.9-.78-9.66-.26-19.34-.3-29a2.63,2.63,0,0,1,1.46-2.48,8.78,8.78,0,0,1,7.41-.43c1.33.52,1.63,1.64,1.75,2.93.1,1-.53,2.35.4,2.86.54.31,1.2-1.1,1.93-1.58,1.58-1.05,2.69-2.66,4.37-3.6s3.46-1.94,5.47-.81,2.78,3.15,3,5.37C639.72,411.86,639.7,412.09,639.7,412.33Z"/><path class="cls-1" d="M750.72,439.26a7.41,7.41,0,0,0,3.73-.61,1.64,1.64,0,0,0,.76-2.62,17.91,17.91,0,0,0-3.72-3.91c-2.86-2.35-5.75-4.69-6.73-8.53a7.9,7.9,0,0,1,.62-5.33c2.6-5.71,7.08-9.59,12.51-12.42,2.16-1.12,4.58-1.45,6.71.24a6.75,6.75,0,0,1,2.39,7,4.15,4.15,0,0,1-2.56,3.08,15.63,15.63,0,0,0-4.94,3.09c-1.92,2-2,3.73-.24,5.92,1.41,1.76,3.08,3.27,4.64,4.87a13.37,13.37,0,0,1,3.67,6,7.46,7.46,0,0,1-3.64,8.32,15.74,15.74,0,0,1-6.46,1.88,19.89,19.89,0,0,1-7.86-.84,6,6,0,0,1-3.8-3.39,2.1,2.1,0,0,1,1.36-2.51A9,9,0,0,1,750.72,439.26Z"/><path class="cls-4" d="M367,515.61c.68-.17,1-.69,1.35-1.07a44.78,44.78,0,0,1,6.29-5.47c1.38-.95,2.05-.67,2.4.9a23.26,23.26,0,0,1,.19,4.33,31.75,31.75,0,0,0,.68,4.52c1.37-.92,1.95-2.29,2.9-3.33,1.46-1.6,2.65-3.45,4.48-4.7a2.3,2.3,0,0,1,2.1-.44c.74.28.77,1.07.81,1.79.18,3.2.24,6.42,2.12,9.25a1.19,1.19,0,0,1-.4,1.73,1.49,1.49,0,0,1-1.93,0,6.21,6.21,0,0,1-1.66-3.73,21.61,21.61,0,0,1-.64-4.24c0-.29.13-.71-.29-.84s-.64.22-.9.5a52,52,0,0,0-4.95,6.59,6.54,6.54,0,0,1-.48.69c-1.13,1.26-2.17,1.19-2.94-.32a15.5,15.5,0,0,1-1.66-6.66c0-.72.33-1.81-.27-2.08-.77-.35-1.31.67-1.87,1.19-2.85,2.61-5.41,5.42-6.33,9.34-.16.67-.56,1.33-1.25,1.32s-1-.69-1.25-1.31c-.79-1.81-.09-3.59.13-5.34.36-2.78,1-5.52,1.53-8.28a4.89,4.89,0,0,0-.42-2.71,1.82,1.82,0,0,1,.46-2.17,1.57,1.57,0,0,1,1.7-.28,1.89,1.89,0,0,1,1,1.84,25.45,25.45,0,0,1-1,8.14A1.08,1.08,0,0,0,367,515.61Z"/><path class="cls-4" d="M666.65,509.73c0-2.53.44-4.84.62-7.16a75.8,75.8,0,0,1,1.48-9.25c.12-.57.47-1.15,1.28-1a1.28,1.28,0,0,1,1.07,1.54c-.26,2.07-.48,4.15-.86,6.21A76.26,76.26,0,0,0,669,518.82c.15,2.26.63,4.49.95,6.74.05.32.11.65.14,1a1.38,1.38,0,0,1-1.21,1.61c-.78.09-1.15-.65-1.25-1.27-.39-2.36-.68-4.74-1-7.18-.62.37-.89,1.07-1.34,1.61-1.35,1.57-2.74,3.09-5,3.25a3.64,3.64,0,0,1-3.89-2.5c-.89-2.66-.1-5.12,1.13-7.46A17.59,17.59,0,0,1,661,510c1.71-1.61,3.14-1.87,5.08-.61Zm-8.4,9.52c0,2.26,1,3,2.69,2.33,2.31-.89,3.51-2.84,4.55-4.92.67-1.33,1.43-2.69-.27-3.89a1,1,0,0,1-.34-.6c-.36-1.12-1.19-1.07-1.87-.54A12.64,12.64,0,0,0,658.25,519.25Z"/><path class="cls-4" d="M424.59,496.79c-3,.43-6,.11-9,.53a.92.92,0,0,0-.89.7,77.82,77.82,0,0,0-2.31,9.88c-.14.83.22,1.05,1,1a40.06,40.06,0,0,0,10.11-2c.89-.29,1.8-.58,2.2.61.34,1-.45,1.53-1.25,1.86a27.15,27.15,0,0,1-7.78,1.93,15,15,0,0,1-4,.3c-.58-.09-.77.21-.86.79a39.36,39.36,0,0,0-.07,11.82,1.59,1.59,0,0,1-1.08,2c-1,.35-1.2-.54-1.5-1.21-.95-2.06-.78-4.33-1.17-6.5a1.07,1.07,0,0,1,.33-.86c.88-.7.74-1.66.76-2.58a57,57,0,0,1,.91-7.81,65.5,65.5,0,0,1,1.78-8.06c.23-.78.16-1.49-.87-1.71a1.09,1.09,0,0,1-1-1.29c0-.77.54-.89,1.14-1.14,2-.84,4.1-.49,6.14-.69,2.78-.27,5.59-.3,8.39-.39a4.77,4.77,0,0,1,1.21.26,1.07,1.07,0,0,1,.9,1.23,1.33,1.33,0,0,1-1.25,1.29C425.81,496.81,425.2,496.79,424.59,496.79Z"/><path class="cls-4" d="M322.34,496.75c-3,.45-6,.2-9,.57a1,1,0,0,0-.95.82c-1,3.15-1.63,6.38-2.27,9.6-.18.92.18,1.23,1.13,1.17a41,41,0,0,0,10-2c.89-.29,1.81-.57,2.2.61s-.44,1.53-1.24,1.87a32,32,0,0,1-7.82,1.94,17.51,17.51,0,0,1-2.48.31c-2.49,0-2.42,0-2.63,2.45a50.59,50.59,0,0,0,.24,10.44,1.44,1.44,0,0,1-1.12,1.7c-.85.25-1.15-.35-1.41-1-.93-2.32-1.64-4.89-.95-7.18,1.32-4.45,1-9.09,2.14-13.52.46-1.78.85-3.58,1.33-5.35.23-.87.24-1.48-.84-1.71-.5-.11-1.14-.28-1-1.09a1.63,1.63,0,0,1,1.26-1.39c1.93-.7,3.9-.46,5.85-.61,2.88-.23,5.78-.36,8.67-.41.9,0,2.07.21,2,1.45s-1,1.48-2.07,1.29A5.35,5.35,0,0,0,322.34,496.75Z"/><path class="cls-4" d="M603.47,531.06c0-.56,0-1,.3-1.24,2.19-2.09,2.13-5,2.8-7.64.4-1.6.51-3.26.8-4.88.26-1.43,0-1.74-1.4-1.49a5.89,5.89,0,0,1-1.26.08,1.15,1.15,0,0,1-1.23-1.23c0-.71.09-1.36,1-1.35,2.81,0,3.69-1.41,4-4.12a25.25,25.25,0,0,1,4.63-12.44,10.86,10.86,0,0,1,6.86-4.38c.82-.16,1.87-.13,2,1a1.51,1.51,0,0,1-1.45,1.73c-3.51.44-5.62,2.67-7.06,5.68a37.3,37.3,0,0,0-2.9,10.13c-.14.79,0,1.19,1,.91,2.47-.66,5-1.15,7.49-1.65,1-.2,2.06-.35,2.38,1,.24,1-.86,1.91-2.18,2-2.85.12-5.56,1-8.33,1.57-.94.18-.91.85-1,1.57a66.22,66.22,0,0,1-2.53,13,14.18,14.18,0,0,1-1.18,2.53c-.35.61-.86,1.28-1.67,1A1.56,1.56,0,0,1,603.47,531.06Z"/><path class="cls-5" d="M92,338.28c5.84,0,9.58,2.53,12.27,6.86.78,1.26.5,2.25-.93,2.59a11.26,11.26,0,0,1-5.18.49,48.14,48.14,0,0,0-5.54-.4,18.35,18.35,0,0,1-6.13-1.52,3.66,3.66,0,0,1-2.27-3.52,3.92,3.92,0,0,1,2.67-3.37A12.43,12.43,0,0,1,92,338.28Z"/><path class="cls-6" d="M482.31,517.25a38.33,38.33,0,0,1,6.77-6.24,9.63,9.63,0,0,1,2-1.23c1.78-.81,3.25.25,3,2.38a46.85,46.85,0,0,0,.07,8.54c.07,1,.2,1.94.27,2.91,0,.46.1,1-.45,1.21a1.23,1.23,0,0,1-1.42-.64,5.17,5.17,0,0,1-.89-2.89c.19-2.43-.55-4.81-.29-7.24.08-.8-.32-.73-.84-.37-3.28,2.29-6.27,4.84-7.71,8.76a3.27,3.27,0,0,1-.24.5c-.33.61-.61,1.57-1.41,1.27a2,2,0,0,1-1.32-2.09c.33-3,0-6.07.28-9.09.21-2.61.71-5.19,1.16-7.77.69-4,1.45-7.94,2.17-11.91.07-.4,0-.89.55-1a1.3,1.3,0,0,1,1.24.5,2.5,2.5,0,0,1,.65,2.06c-.87,4.69-1.85,9.36-2.61,14.07A54.53,54.53,0,0,0,482.31,517.25Z"/><path class="cls-4" d="M559.6,501.85c2.32-.19,3.66,1.07,4.52,2.93a9.45,9.45,0,0,1-3.84,12,29.63,29.63,0,0,1-4,1.91,1.54,1.54,0,0,0-1.12,1.92c.44,3.5-.12,6.95-.64,10.39a5.36,5.36,0,0,1-.43,1,1.08,1.08,0,0,1-1.36.69,1,1,0,0,1-.89-1.2c.06-1.29.52-2.51.67-3.79.26-2.24.1-4.48.15-6.71,0-.58-.43-.68-.78-.86-1.14-.6-1.38-1.52-.39-2.31a2.52,2.52,0,0,0,.87-2.16c.21-4.05.84-8,3.08-11.52A4.23,4.23,0,0,1,559.6,501.85Zm-4.52,12.62c0,.35,0,.72,0,1.09,0,.61.27.68.8.56a8.13,8.13,0,0,0,6.54-8.55,3.36,3.36,0,0,0-2.2-3.12c-1.53-.31-2.3.75-3,1.84A17.88,17.88,0,0,0,555.08,514.47Z"/><path class="cls-4" d="M515.79,524.58a4.47,4.47,0,0,1-2.45-.42c-.73-.4-1.23-1-.86-1.82a1.45,1.45,0,0,1,1.77-.92,8.23,8.23,0,0,0,8.56-3.42,3.24,3.24,0,0,0-1.35-4.9c-1.61-.81-3.19-1.67-4.84-2.38-4.68-2.05-3.89-7.77-1.48-10.34a19.15,19.15,0,0,1,6.87-4.83c.91-.37,1.43-1.41,2.6-1.45s2.25.49,2.36,1.44c.14,1.24-.72,1.53-1.69,1.82a17,17,0,0,0-8,4.54,5.45,5.45,0,0,0-1.42,3.26,3.09,3.09,0,0,0,1.88,3.15c1.58.79,3.15,1.61,4.76,2.34,4.2,1.9,4.38,7.12,2,9.83A11.73,11.73,0,0,1,515.79,524.58Z"/><path class="cls-5" d="M94.83,384.34c-2.23,0-3.07-1.5-2.28-3.47a12.38,12.38,0,0,1,6.11-6.2,36.86,36.86,0,0,1,8.31-3.34,2.75,2.75,0,0,1,2.91.85c.79.92.38,1.93-.16,2.86a14,14,0,0,1-4,4.23c-3,2.24-6.21,4.27-10,4.94Z"/><path class="cls-6" d="M328.37,518.6c-.2-2.13,1-3.89,2.29-5.5,2.09-2.65,4.5-5,7.94-5.78,1.73-.42,2.75.33,3,2.09a18,18,0,0,0,.38,1.77,8.59,8.59,0,0,1,0,4.61,13.11,13.11,0,0,0,0,7.32,1.36,1.36,0,0,1-1.13,1.95c-.86.15-1.35-.63-1.47-1.5-.1-.69-.21-1.37-.29-2-.05-.39.21-.9-.35-1.08s-.73.31-1,.58a16.92,16.92,0,0,1-2.7,2C331.21,525.22,328.11,522,328.37,518.6Zm11.23-5.47c0-2.69-.58-3.42-1.86-2.7a13.58,13.58,0,0,0-6.7,7.38,2.39,2.39,0,0,0,.47,2.73,2.19,2.19,0,0,0,2.64,0A10.51,10.51,0,0,0,339.6,513.13Z"/><path class="cls-6" d="M580.74,524.55a6.78,6.78,0,0,1-6.28-3.48,1.7,1.7,0,0,0-1.91-1,6,6,0,0,1-3.81-1,1.81,1.81,0,0,1-1-1.71c0-1.24.76-1.67,1.85-1a5,5,0,0,0,2.4,1c.63,0,.88,0,.84-.86a11.73,11.73,0,0,1,3-8.81,3.5,3.5,0,0,1,4.09-.87,4.31,4.31,0,0,1,3,3.74c.25,3.3-1.86,5.31-4.1,7.21a7.6,7.6,0,0,1-1.18.75c-1.37.77-1.4,1-.24,2.13a3.91,3.91,0,0,0,3.73,1.07,13.31,13.31,0,0,1,2.08-.2,1.2,1.2,0,0,1,1.35,1,1.26,1.26,0,0,1-.84,1.57A4.61,4.61,0,0,1,580.74,524.55Zm-5.12-9.78c0,.33,0,.66,0,1,0,.62.23.92.84.57,1.8-1.05,3.42-2.25,4-4.41a1.94,1.94,0,0,0-1.14-2.41,1.7,1.7,0,0,0-2.38.8A8,8,0,0,0,575.62,514.77Z"/><path class="cls-6" d="M450.86,515a10.87,10.87,0,0,1,2.72-7.25,4.07,4.07,0,0,1,4.61-.78,4.76,4.76,0,0,1,2.64,4.67c-.61,3.37-2.81,5.5-5.65,7-1,.53-.91.92-.36,1.59a4,4,0,0,0,4.1,1.5,13.43,13.43,0,0,1,2.08-.2,1.2,1.2,0,0,1,1.36,1,1.27,1.27,0,0,1-.82,1.58,7.46,7.46,0,0,1-5.79,0,5.69,5.69,0,0,1-3.3-2.83,2,2,0,0,0-2.14-1.18,5.21,5.21,0,0,1-4.17-1.46,1.57,1.57,0,0,1-.31-2.22c.57-.82,1.32-.31,2,.13.19.14.38.28.57.4a2.29,2.29,0,0,0,2.26.32c.6-.3.14-1.11.24-1.69A3.49,3.49,0,0,0,450.86,515Zm2.53,0c.39.35-.51,1.81.76,1.32a6.5,6.5,0,0,0,4.24-4.51,2,2,0,0,0-1.31-2.35,1.69,1.69,0,0,0-2.26.84A9.44,9.44,0,0,0,453.39,515Z"/><path class="cls-4" d="M543.24,516.41c-2.2,2.06-3.91,4.27-6.19,5.85-1.41,1-2.88,2-4.76,1.19s-1.78-1.88-1.46-4.15c.48-3.46,1.49-6.85,1.54-10.38,0-.69.16-1.36,1-1.4s1.13.72,1.19,1.42a28.44,28.44,0,0,1-.67,6.23c-.19,1.42-.53,2.83-.7,4.25-.14,1.26.4,1.65,1.56,1.16a8.5,8.5,0,0,0,2.45-1.54,43,43,0,0,0,7.19-9.15c.27-.43.51-.88.8-1.3s.63-1.06,1.41-.79.69,1,.6,1.53c-.3,1.92-.84,3.79-1.16,5.72a31.58,31.58,0,0,0-.47,7.64c.06.76-.16,1.42-1,1.6a1.4,1.4,0,0,1-1.76-.75.77.77,0,0,1-.13-.76c.73-1.71.09-3.61.67-5.36C543.43,517.19,543.3,516.9,543.24,516.41Z"/><path class="cls-4" d="M628.59,524c-2.88,0-4.8-2.39-5.33-4.92a10.65,10.65,0,0,1,3.52-10.61c2.45-2.2,5-1.86,7.11.65,3.45,4.1,1.41,12.66-3.48,14.51A4.36,4.36,0,0,1,628.59,524Zm-3-7.5a13.66,13.66,0,0,0,.14,1.81c.5,2.45,2.79,3.67,4.53,2.44a8.27,8.27,0,0,0,2.89-7.47,3.24,3.24,0,0,0-3-2.92,3.38,3.38,0,0,0-3.18,1.66A7.25,7.25,0,0,0,625.55,516.5Z"/><path class="cls-5" d="M116.7,325.72c.22-1.41.37-2.83.67-4.21.48-2.13,1.85-2.54,3.52-1.1a11.49,11.49,0,0,1,3.11,4.42c1,2.48,2.08,5,1.47,7.78-.27,1.26-.78,2.35-2.09,2.7S121,335,120,334.13C117.39,331.9,117.3,328.73,116.7,325.72Z"/><path class="cls-6" d="M652.37,514.4c-.24,3.48-1.08,6.67-4.28,8.72a4.85,4.85,0,0,1-6.91-1.49c-3.1-4.43-.64-11.44,2.68-13.35,1-.57,1.75-1.78,3.13-1.46a6.47,6.47,0,0,1,4.15,3.06A6.93,6.93,0,0,1,652.37,514.4Zm-10.13,2.33a5.84,5.84,0,0,0,.69,2.78c1.19,2.08,3.22,2.33,4.82.55A8.82,8.82,0,0,0,650,514.9c.19-2-.83-4-2.15-4.3-2.3-.56-3.75.16-4.81,2.42A9.31,9.31,0,0,0,642.24,516.73Z"/><path class="cls-4" d="M350.76,512.76a18.77,18.77,0,0,1,4.68-5,6.7,6.7,0,0,1,3.79-1.16,1.82,1.82,0,0,1,2,1.6c.21,1-.63,1.36-1.34,1.7a2.72,2.72,0,0,1-1.2.32c-3.41-.1-4.81,2.39-6.12,4.86a19.62,19.62,0,0,0-1.71,6.84,8.54,8.54,0,0,1-.5,1.88c-.15.41-.39.91-.77.91a1.45,1.45,0,0,1-1.18-.86c-.75-1.38,0-2.72.05-4.08.15-2.57.59-5.15-.68-7.64a6.4,6.4,0,0,1-.54-3.51c0-.51.17-.94.64-1.12a1.14,1.14,0,0,1,1.36.43,5.85,5.85,0,0,1,1,3C350.35,511.5,350.55,512,350.76,512.76Z"/><path class="cls-4" d="M434.7,512.72a17.35,17.35,0,0,1,4-4.51,8.6,8.6,0,0,1,4.09-1.56,2,2,0,0,1,2.26,1.46c.33,1.12-.64,1.42-1.36,1.77a3.31,3.31,0,0,1-2.34.45c-.95-.21-1.68.67-2.37,1.27-2.33,2-3.32,4.76-3.87,7.69-.22,1.19-.33,2.4-.61,3.57-.16.69-.14,1.71-1.24,1.7-.76,0-1.74-1.55-1.5-2.39.31-1.07.41-2.16.61-3.24a10.08,10.08,0,0,0-.76-6.71,7.39,7.39,0,0,1-.43-3.55c0-.49,0-1.08.7-1.19a1.3,1.3,0,0,1,1.41.68,10.54,10.54,0,0,1,.94,3.34A2.7,2.7,0,0,0,434.7,512.72Z"/><path class="cls-4" d="M591.79,512.73a16.31,16.31,0,0,1,4.1-4.59,8.09,8.09,0,0,1,4.13-1.49,1.93,1.93,0,0,1,2.18,1.57c.24,1-.69,1.33-1.38,1.65a3.39,3.39,0,0,1-2.35.47c-1-.22-1.68.66-2.37,1.26-2.31,2-3.27,4.7-3.87,7.57-.25,1.18-.33,2.4-.6,3.57-.17.75-.11,1.82-1.28,1.81-.77,0-1.72-1.72-1.45-2.58a27.75,27.75,0,0,0,.56-2.83,10.68,10.68,0,0,0-.85-7.25,6.76,6.76,0,0,1-.31-3.16c0-.49-.06-1.1.64-1.24a1.32,1.32,0,0,1,1.51.75,11.17,11.17,0,0,1,.9,3.35A2.51,2.51,0,0,0,591.79,512.73Z"/><path class="cls-4" d="M468.3,525.44a10.26,10.26,0,0,1-2.2-.22c-.83-.31-1.58-.56-1.36-1.69s1-1.33,2-1a8,8,0,0,0,2.79.16,2.07,2.07,0,0,0,2-3c-.86-2.58-1.81-5.12-2.62-7.72a4.49,4.49,0,0,1,2.06-5.59,5.55,5.55,0,0,1,3.37-.85c1.42.07,2,.63,2.14,2.05.09,1-.27,1.53-1.3,1.56l-2.24.05c-1.47,0-2.13.81-1.69,2.22s1.06,2.87,1.58,4.31a17.56,17.56,0,0,1,1.4,5.65,3.58,3.58,0,0,1-3,3.8A9.28,9.28,0,0,1,468.3,525.44Z"/><path class="cls-4" d="M679.07,512.42a86.24,86.24,0,0,1,1.35-13.21c.24-1.11,0-2.28.54-3.4a1.7,1.7,0,0,1,2.22-.93c1,.21.74,1.15.59,1.75a86.29,86.29,0,0,0-2.26,18.24,5.36,5.36,0,0,1-.22,1.1,1.19,1.19,0,0,1-1.45,1,1.25,1.25,0,0,1-.93-1.6A19.12,19.12,0,0,0,679.07,512.42Z"/><path class="cls-4" d="M681.86,523.44c0,1.35-.59,2-1.76,2a2.64,2.64,0,0,1-2.18-2.32,1.89,1.89,0,0,1,1.86-2.12A2.16,2.16,0,0,1,681.86,523.44Z"/><path class="cls-7" d="M733,391.91c-.18,0-.26-.05-.23-.23Z"/></svg>