<svg id="Layer_1" data-name="Layer 1" xmlns="http://www.w3.org/2000/svg" viewBox="0 0 851.98 852.09"><defs><style>.cls-1{fill:#015633;}.cls-2{fill:#59bcc7;}.cls-3{fill:#78c266;}.cls-4{fill:#77c167;}.cls-5{fill:#76c168;}.cls-6{fill:#eece3c;}.cls-7{fill:#77c168;}.cls-8{fill:#ecce3e;}.cls-9{fill:#7bc363;}.cls-10{fill:#77c268;}.cls-11{fill:#edcf3e;}.cls-12{fill:#7ac363;}.cls-13{fill:#59b7b7;}.cls-14{fill:#74bf6c;}.cls-15{fill:#5ab7b7;}.cls-16{fill:#5ab8b9;}.cls-17{fill:#5ab6b6;}.cls-18{fill:#5bb8b8;}.cls-19{fill:#59b6b6;}.cls-20{fill:#59b5b3;}.cls-21{fill:#126129;}.cls-22{fill:#07582c;}.cls-23{fill:#07592d;}.cls-24{fill:#065d45;}.cls-25{fill:#045941;}</style></defs><title>healthySprouts</title><path class="cls-1" d="M431.87,71.19C625.79,73.74,781.39,233.5,779.29,427c-2.1,193-158.93,347.69-350,348.9C231.86,777.17,72.67,616.17,74.45,420.34,76.22,225.32,236.61,68.13,431.87,71.19ZM271.29,601.58l0,0c6.62-.43,9.3-5.15,11.44-10.48.66-.33.44-1.39,1.29-1.57a21.29,21.29,0,0,0,1.57,7.1c.9,2.06,1.59,4.45,4.33,5l0,0a4.25,4.25,0,0,0,5.19,0,14.15,14.15,0,0,0,5.42-6,.79.79,0,0,0,.33-.51c1.38-.58,1.38-2.56,2.95-3.06,1.17,3.3,1.34,7,4.87,8.85a1.7,1.7,0,0,0,1.49.86c3.41,1.68,6.1,0,8.29-2.23A40.67,40.67,0,0,0,328.22,583c.9,1,.63,2.35.78,3.58.47,4,1,8,3.12,11.45,3.12,5.18,8.23,5.8,12.52,1.56a34,34,0,0,0,5.54-8c.34-.62.38-1.81,1.8-1.58.45,3.09,0,6.24.82,9.28.74,2.75,2.66,4.14,5.43,3.67,3.31-.56,4.61-2,4.48-5.75-.17-5,.39-9.74,2.61-14.2,1.15-2.29,2.23-4.78,5.19-5.39,1.67,1.3,1.2,3,1.21,4.59,0,4.5-.07,9,1.17,13.38,1.88,6.62,6.48,7.86,11.28,3,2.5-2.53,4.69-5.35,7.28-8.34.82,2.56,1.31,4.85,2.48,6.9,3.6,6.35,10.53,6.59,14.27.4,1-1.69,1.68-3.61,2.54-5.4.67-1.39.47-3.13,2.1-4.85-.16,3-.63,5.52-.35,7.92.63,5.5-1.54,9.45-5.62,12.95a28.85,28.85,0,0,0-8.19,11.5c-1.39,3.57-2.05,7.18-.65,10.93,2,5.45,7.6,7.3,12.49,4.11a19.82,19.82,0,0,0,7-8.12c2.58-5.34,3.61-11.06,4.59-16.86.53-3.08-.27-6.47,2.13-9.24,3.93-4.52,7.68-9.21,11.44-13.87,1.31-1.62,3.4-3.85,1.52-5.5-2.26-2-3.9.77-5.37,2.37a78.74,78.74,0,0,1-8,8.2c-.69-1.36-.38-2.48-.38-3.57,0-6.25.13-12.5.13-18.75,0-4.29-2.3-7.26-5.68-7.54s-5.56,1.9-6.43,6.32c-1.12,5.74-1.82,11.56-3.73,17.13a14.88,14.88,0,0,1-2.18,4.73c-1.5,1.85-2.93,1.56-3.76-.7a16.23,16.23,0,0,1-.49-7.77c.57-4.7,1.2-9.39,1.62-14.1a5.21,5.21,0,0,0-5.14-5.7c-3.69-.22-5.81,1.68-6.38,6.28a73.59,73.59,0,0,0-.78,12.3c.22,4.43-2.17,7-5.28,9.21-2.32,1.64-3.49.86-3.93-2-.73-4.87.31-9.69.18-14.55-.1-3.59-.82-6.76-4.26-8.53-3.12-1.61-7-.61-10.28,2.32-1.44,1.29-2.42,3.09-4.81,4.29-.47-10.15,2-18.88,8.32-26.28,3.43-4,3.47-7.74-.48-11.26-2.77-2.47-5.73-2.26-8.12.63a19.87,19.87,0,0,0-3.06,5.11c-4.25,10.27-6.07,21-6.63,32.06-.29,5.78-.95,11.29-5.06,15.85-1.67,1.85-3.08,4.78-5.74,4-2.41-.67-2.5-3.81-2.65-6.15a90.91,90.91,0,0,1,1-20.91c.33-2-.33-4.59,1.24-6.08s4.06-.5,6.13-.69c3-.28,4.37-1.65,4.42-4.49s-1.35-4.3-4.24-4.69c-1.29-.17-2.74.51-3.84-.52-.34-1.06.28-1.8.58-2.59,2-5.13.4-8.83-4.75-11-3.44-1.47-5.4-.59-6.62,3a46.18,46.18,0,0,0-2.07,10.24c-.23,2.36-1.12,3.15-3.31,3.61a20.67,20.67,0,0,0-6.64,2.46c-2.08,1.29-3,3.18-2,5.43s3,2.71,5.07,2.2c1.67-.41,3.32-.69,5.28-1,0,7.79-1,15.36-.74,23-2.11-1.92-2.75-1.87-4.4.67s-3.07,5.15-5.57,6.92c-2.05,1.46-3.34,1.07-4.29-1.24a11.76,11.76,0,0,1-.74-5.13c.63-14.59,2.79-28.89,8.23-42.55a.86.86,0,0,0,.1-.59c.22-3.93-2.2-6.78-6.39-7.54-3.13-.56-4.55.56-5.93,4.69a30.36,30.36,0,0,0-1,3.2c-2.41,11.42-4.6,22.91-4.7,34.6-.05,5.2-.77,9.82-4.39,13.7a.7.7,0,0,0-.28.48c-1.44.44-2.47,2.19-4.31,1.33a.26.26,0,0,0,0-.37,28.79,28.79,0,0,1-.74-10.37c.25-3.71.91-7.4,1.32-11.1.38-3.4-.87-5.14-4.18-6a5.93,5.93,0,0,0-7.13,3.26,26.39,26.39,0,0,0-.9,3.4c-1.56-1.06-1.76-3.38-4-3.36h-.07c-3-3-7.78-3-11.21.09-3.9,3.47-5.17,8.26-6.87,12.94-2.37,6.53-6.38,11.8-13.5,13.71-3.41.91-5.5-.67-5.88-4a1.17,1.17,0,0,0,.56-.27c5.27-2.89,9.63-6.57,11.57-12.58s.81-11.47-3.16-14.24c-3.53-2.46-9.77-1.95-13.69,1.12-9,7-11.75,22.71-5.7,32.32,1.85,2.92,4.21,5.25,7.89,5.69l0,0c4.69,1.8,8.93.76,13-2,3.33-2.22,5.43-5.64,8.22-8.6,2.39,7.32,3.15,8.36,7.39,10.3l2.14.21C270.19,602.14,270.74,602.22,271.29,601.58ZM475.76,680.1l.37.31c-.06,1.49-.12,3-.16,4.48,0,1,.38,1.74,1.44,1.81a1.43,1.43,0,0,0,1.63-1.61,44.06,44.06,0,0,1,1.88-13.59,1.23,1.23,0,0,0-.59-1.59,1.3,1.3,0,0,0-1.65.47c-.69.87-1.3,1.82-1.92,2.75a39.36,39.36,0,0,1-6.6,8.07c-1,.91-2,1.83-3.35,1.15-.63-4.5,2.21-8.78.28-13.15-1.08.24-1.5.69-1.6,1.34-.55,3.43-1.09,6.85-1.55,10.29-.25,1.78-1.05,3.74,1.3,4.89s3.78-.14,5.45-1.29C472.53,683.16,473.61,681,475.76,680.1ZM404.34,290.92a105.85,105.85,0,0,0-12.69.8c-16.34,2.5-31.35,7.74-43.69,19.38-15,14.21-20.95,31.44-17.86,51.8,2.33,15.33,8.67,29.16,16.8,42.13A321,321,0,0,0,393.52,463c8.56,8.45,18,15.85,29.29,20.5,14.09,5.82,27.88,6,41.12-2.58a105.7,105.7,0,0,0,40.17-47.68c2.28-5.24,3.83-10.81,2.69-16.73-1.09-5.62-5.35-8.38-11-7.21s-9.41,5-13,8.94c-4,4.42-8,8.91-12.79,12.6-7.58,5.88-15.91,9.65-25.78,9.51-11.76-.16-22.3-4.16-32-10.34-18.65-11.93-33.77-27.72-46.72-45.45-8.26-11.29-13-24.33-12.35-38.52.9-20.2,13.31-29.84,31.51-29.23,12.33.42,22.39,6.33,30.53,15.49,8.48,9.55,12.14,21.08,13.38,33.47.4,4,.79,8.26-.72,12.25-1.34,3.53-3.65,4.46-7.14,3a19.93,19.93,0,0,1-5.51-3.82c-4.33-3.95-7.16-8.95-9.9-14-2.27-4.16-4.36-8.43-7.21-12.23-3.95-5.27-8.85-5.84-13.85-1.57a13.34,13.34,0,0,0-5.05,10.81,25.86,25.86,0,0,0,3,11.1A74.8,74.8,0,0,0,407.33,400a46.35,46.35,0,0,0,32.77,8c14.58-1.87,23.33-10.92,26.67-26.5,3.08-14.34,3.75-29,.92-43.5-2.31-11.92-7.28-22.58-16.79-30.56A67.62,67.62,0,0,0,404.34,290.92Zm50.49-83.57c-3.59-1.38-6.68-2.67-9.84-3.76-17.77-6.1-35.79-10.63-54.85-9.41a96.49,96.49,0,0,0-44.81,14.24,62.65,62.65,0,0,0-18.58,16.64c-3,4.15-1.72,7.27,3.3,7.63a77.43,77.43,0,0,1,33,10c4.24,2.39,8.61,4.55,13,6.69,12,5.88,24.52,9.2,37.91,8.59,8.46-.39,16.7-2,23.39-7.66,10.65-9.1,7.54-23-3.16-27.13a51.16,51.16,0,0,0-17.51-3.33c-6-.13-12-.58-18-.88a17.34,17.34,0,0,1-7.21-1.77c-3.21-1.67-3.35-4.73-.41-6.81a13.29,13.29,0,0,1,5.59-1.94c7.81-1.39,15.38.32,23,1.61,19.67,3.36,36.55,11.92,50.48,26.42a263.84,263.84,0,0,1,23.18,28.43c17.12,23.68,21.9,50,16.65,78.5-2.06,11.19-5.49,22-8.63,32.84-1.49,5.15-3.09,10.27-2.88,15.73.17,4.53,2.09,6.73,6.44,7.94,6.09,1.7,11-.54,15.54-4.28,5.51-4.59,9.13-10.6,11.71-17.16a121,121,0,0,0,7.69-61.24,127.15,127.15,0,0,0-16.38-48.55c-7.16-12.16-16.25-22.73-26-32.83-6.08-6.31-12-12.69-16.7-20.16-4.28-6.85-7.58-14.1-8.38-22.2-1.05-10.54,3.34-19.19,10.05-26.89,4.48-5.16,9.48-9.59,16.25-11.53a11.76,11.76,0,0,1,8,.14c1.2.51,2.28,1.31,2.33,2.7.06,1.71-1.51,1.72-2.66,2a45.77,45.77,0,0,0-17,9.14c-6.48,5.45-10,12.27-9.71,20.92.25,7.45,4.42,10.64,11.54,8.57.6-.18,1.16-.47,1.74-.7,6.13-2.45,11.31-6.37,16.11-10.76,11.06-10.1,20.73-21.65,32.49-31,3.87-3.09,3.56-4.9-.61-7.74-8.11-5.53-17.32-7.67-26.91-7.93a52.1,52.1,0,0,0-33.83,11c-13.4,10.19-22,23.19-24.62,40C454.78,196.59,455.26,201.68,454.83,207.35ZM175.27,579c-1.32,8.34-2.59,16.27-6.44,23.51-2.66,5-2.37,6,2.76,8.34a28.47,28.47,0,0,0,4.26,1.34c2.48.69,3.72-.26,4.63-2.41a70.51,70.51,0,0,0,4.44-15.41c1-6,1.83-12,2.74-18.09a107.46,107.46,0,0,1,16.23-.16c2.06.14,2.93,1.15,3.21,3.27.46,3.59.48,7.2,1.05,10.78a71.72,71.72,0,0,0,5.58,19.32c.79,1.67,1.8,3.28,3.8,3.07a12.7,12.7,0,0,0,8.86-5.07c2-2.61-.19-4.65-1.29-6.79-.12-.22-.24-.44-.35-.66-5.81-11.4-7.79-23.49-7-36.2.58-9.23,2.46-18,7.05-26.1a2.76,2.76,0,0,0-.73-3.94,13.88,13.88,0,0,0-5.6-2.86c-2.58-.66-4.14-.08-5.26,2.59-2.72,6.51-3.87,13.36-5,20.24-.73,4.29-.52,8.67-1.18,13.3-6.43-.38-12.56-1.15-18.47-.2a4.93,4.93,0,0,1-.53-3c0-7,.26-14-.74-20.94-.71-4.94-1.3-9.89-3.52-14.45-1.8-3.68-3.7-4.47-7.52-3a15.67,15.67,0,0,0-6.34,4.53c-1,1.15-1.69,2.35-.49,4,7.53,10.33,6.75,22.24,6.7,34.21-5.91,1.29-11.54,2.32-16.88,4.36-1.24.48-2.94.69-3.35,2.14-.88,3.06.54,5.61,2.42,7.9,1.63,2,3.45,1.15,5.31.27A46.39,46.39,0,0,1,175.27,579Zm473.57-18.66c.7,1.16.34,2.44.38,3.66.24,5.85-.88,11.64-.22,17.55.43,3.89-1.53,7.55-4.22,10.49-2.09,2.3-4.5,1.63-5.2-1.4a21.26,21.26,0,0,1-.7-8.53c.74-4.2.28-8.48,1.17-12.66.59-2.79,0-5.27-2.77-6.73-4.11-2.21-7.94-.31-8.94,4.5-.65,3.16-1,6.39-1.63,9.56a46.7,46.7,0,0,1-4,12.78,2.34,2.34,0,0,1-2.32,1.58c-1.25-.1-1.62-1-1.85-2a14.87,14.87,0,0,1-.64-5.54c.76-5.05.73-10.18,1.74-15.21a5.41,5.41,0,0,0-4.06-6.55c-3.55-.71-5.93,1-6.93,4.52-.83,2.93-.76,5.94-1.06,8.9a46.14,46.14,0,0,0,1.87,18.85c1.63,5.1,4.9,8,8.83,7.91,4.76-.16,6.79-3.66,8.38-7.45,1-2.4,1.78-4.91,2.65-7.37a28,28,0,0,0,2.47,9.5c3.47,6.91,9.85,7.55,14.5,1.39,1.31-1.74,2.41-3.64,3.81-5.77a53.79,53.79,0,0,0,2.25,5.51c2.42,4.48,7.37,6.07,11,3.15,5.32-4.26,8.15-10.3,10.37-16.59a2.21,2.21,0,0,0-1.18-2.85c-1.12-.46-1.78.52-2.37,1.37-1.42,2-2.39,4.39-4.17,6.2-1.15,1.16-2.25,2.56-4.12,2-1.66-.52-1.93-2.08-2.24-3.59-1.56-7.86-.37-15.66.56-23.44.24-2-.4-4.61,1.3-6.07s4.09-.4,6.16-.65c.12,0,.25,0,.37,0,2.58-.36,3.84-1.88,3.83-4.63s-1.16-4.12-3.94-4.41c-1.35-.15-2.71-.18-4-.25-.44-1.22.23-2.1.56-3,1.93-5.32.24-9-5.15-11.13-3.16-1.23-5.44-.2-6.29,3.09a41.49,41.49,0,0,0-1.63,8c-.19,3.55-1.4,6.1-5.53,6.37a12.26,12.26,0,0,0-4.19,1.55c-2.23,1.09-3.59,2.76-2.79,5.41.61,2,2.88,3.13,5.57,2.62C645.9,560.68,647.28,560,648.84,560.34Zm-176.37,48a48.69,48.69,0,0,0,18.78-3.6c4.91-2,9.37-4.75,12.48-9.22,3.92-5.63,2.86-11.33-2.76-15.25-3.84-2.68-8.24-4.12-12.57-5.71-5.39-2-10.82-3.85-15.42-7.47-2.91-2.3-4.6-5.06-4.52-9,.18-9.53,11.14-19.23,21.58-18.94,3.61.1,4.92,1.24,5.38,4.85a13.73,13.73,0,0,1-.33,4.46,68.55,68.55,0,0,1-3.33,9.9c-1.05,2.82-.28,4.17,2.56,5.06a9.39,9.39,0,0,0,11.12-5.33,31.5,31.5,0,0,0,2-15.07c-.72-6.23-4.92-10.13-11.17-11.39-8.38-1.7-16.16.18-23.53,3.8-8.33,4.1-15.06,10-17.23,19.54-1.71,7.56-.54,12.5,5.88,17.56a49.42,49.42,0,0,0,12.18,6.51c4.49,1.84,9.19,3.21,13.49,5.5,1.86,1,4.07,2,3.83,4.58a6.19,6.19,0,0,1-4.42,5.52,19.79,19.79,0,0,1-9.52,1.19,72.94,72.94,0,0,1-10.54-2.35c-3.14-1-5.58.08-6.64,2.51a8.27,8.27,0,0,0,5.83,11.4C468.15,608,470.74,608.51,472.47,608.34Zm48.09-41.54a5.26,5.26,0,0,1-.41-.92c-.79-3.54-1.85-4.3-5.75-4.1-3.18.16-3.55.78-4.1,4.39-1.07,7.18-.85,14.45-1.12,21.65a285.49,285.49,0,0,0,1.9,45.54c.58,4.8,4.39,6.89,8.79,4.2,3.27-2,4.12-4.25,3.09-8.31a88.31,88.31,0,0,1-2.68-26.84c3.72-.44,7.4-1.09,10.13-3.56,8.07-7.27,12.15-16.6,11.33-27.32-.62-8.1-5.62-11.78-15.06-8.93C524.36,563.3,522.65,565,520.56,566.8Zm-221-358.18c3-.08,6,.19,9-.42,5.14-1.06,6.23-3.62,3.48-8-5.44-8.65-13.12-14-23.35-15.07-6.67-.73-13.2.08-19,3.92-5.55,3.71-5.64,9.95-.32,14a17.49,17.49,0,0,0,7.13,3.16C284.07,207.82,291.79,208.26,299.52,208.62ZM571.9,582.17a26.37,26.37,0,0,0,.89,8.16c1.48,6.45,6,10.94,12,11.77,4.55.62,10.65-1.58,14.37-7.69a28.35,28.35,0,0,0,4-15c0-5.89-1-11.69-5.78-16-5.47-4.93-15.09-4.61-18.68.84-1,1.52-2.39,3.4-1.13,5.15s2.94-.09,4.44-.31c.36-.06.69-.3,1.05-.38,4.15-.89,6.86.45,8.25,4.47a21.94,21.94,0,0,1,.16,13.62c-1.23,4.15-3.2,6.12-5.44,5.68-2.41-.47-3.82-3.94-3.31-7.92.33-2.59.65-5.2.76-7.81a5.88,5.88,0,0,0-5.3-5.82c-2.68-.37-4.71,1.27-5.64,4.23C571.86,577.46,572,579.82,571.9,582.17ZM290.69,293.76c.27-.05.89-.1,1.5-.24a60.12,60.12,0,0,0,31.71-19.28,12.23,12.23,0,0,0,2.51-4.57c1.1-3.58-.78-6.54-4.51-7.05a9.41,9.41,0,0,0-4.42.55c-6.69,2.38-13.35,4.91-19.46,8.54-5.75,3.41-10.74,7.75-13.25,14.24C282.94,290.68,285.26,293.85,290.69,293.76ZM685.3,602.31a22.26,22.26,0,0,0,5.26-.47c8-2.1,10.07-8.69,4.55-15-1.4-1.59-2.84-3.14-4.29-4.69-3.28-3.49-3-5.72,1.11-8.33.63-.4,1.32-.7,2-1.05a6.16,6.16,0,0,0,3-8.41c-1.38-2.92-4.93-4.17-8.28-2.58A26.73,26.73,0,0,0,676.36,573c-2.4,4.3-2,7.57,1.29,11.3,1.06,1.21,2.38,2.19,3.56,3.3a35.76,35.76,0,0,1,3.46,3.39c1.92,2.38,1.46,3.5-1.52,3.85-1.23.14-2.51-.05-3.72.15s-2.84.44-3.14,2.16.73,2.61,1.93,3.35A12.37,12.37,0,0,0,685.3,602.31ZM556.42,567.87a6.61,6.61,0,0,1-.67-1.43c-.77-3.7-2.32-5-5.66-4.6-3.65.41-5.13,1.9-5.08,5.57.14,10.34-.63,20.7.69,31,.4,3,2.19,4.73,5.19,4.56,3.49-.2,4.82-1.45,4.71-4.8a60.64,60.64,0,0,1,.64-10.43c.68-4.8,2.73-8.76,7-11.35,1.39-.83,2.84-1.57,4.24-2.38,3.8-2.22,4.7-6.17,2.29-9.91q-2.91-4.5-8.68,0C559.54,565.26,558.46,567,556.42,567.87ZM362.94,167.56c-.78-8.74-3.93-17.24-10.73-24.09-4-4.07-7.63-3.19-8.89,2.36a38.36,38.36,0,0,0,.52,20.33,20.26,20.26,0,0,0,4.36,7.74c2.69,2.93,5.9,5.82,10,4.25S362.83,172.32,362.94,167.56ZM296.3,677a5.24,5.24,0,0,1,.11-3.8,12.21,12.21,0,0,0,.29-4.46c-.08-1.27-.33-2.7-2.05-2.48-1.55.21-1.79,1.5-1.6,2.88a24.89,24.89,0,0,1-.74,8.88,35.61,35.61,0,0,0-.8,5.53c-.08,1.32-.22,3.07,1.57,3.32,1.63.23,1.78-1.48,2.15-2.59,1.34-3.87,4.13-6.45,7.17-9.06,1.51,3.65.33,7.81,4.05,10.27,3.46-1.94,4-6.61,7.77-8.28.67,2.5,1.23,4.78,1.92,7a1.93,1.93,0,0,0,2.72,1.24c1.36-.46,1.11-1.5.55-2.43-1.47-2.46-1.67-5.17-1.76-7.93,0-1.11,0-2.41-1.25-2.89s-2.16.4-3,1.1-1.51,1.67-2.35,2.4c-1.47,1.26-2.12,3.33-4.45,4.48-.13-2.53-.16-4.72-.38-6.89-.31-3.16-1.58-3.7-4.09-1.65C300.12,673.31,298.31,675.17,296.3,677Zm309.11,13.68c1.68-1.6,1.72-1.61,1.42-3.37a64.48,64.48,0,0,1,.17-23c.63-3.23,1.67-6.74.6-10.73-3.81,1.91-2.73,5.44-3.33,8.09a86,86,0,0,0-1.1,9.1c-1.75-.28-3.44-.94-4.84.25-3.32,2.83-5.67,6.3-6.08,10.76a4.74,4.74,0,0,0,2.44,4.72c1.76,1,3.43.44,4.89-.63,1.25-.92,2.35-2,3.59-3.15C603.88,685.61,603.47,688.47,605.41,690.71ZM339.24,658c2.5,1.16,2,3.08,1.62,5-.65,3-1.61,6.06-1.78,9.13-.25,4.53-2.06,9-1,13.54.29,1.21.36,3.08,2.35,2.73,1.81-.32,1.27-2,1.08-3.07a25.91,25.91,0,0,1,.62-11.64l3.28-.19a34.82,34.82,0,0,0,9.07-2.06c.83-.29,1.64-1,1.33-2s-1.31-1.35-2.42-.93a11.75,11.75,0,0,1-2.49.77c-2.75.4-5.42,1.89-8.4.7,0-3.28,1.06-6.22,1.8-9.22a2.76,2.76,0,0,1,3.05-2.19c2.62.05,5.24,0,7.86-.07,1.14,0,2.49,0,2.58-1.45s-1.23-1.65-2.38-1.65c-3.87,0-7.75-.08-11.59.23C342.4,655.82,340.56,655.93,339.24,658ZM237.58,670.32a18.08,18.08,0,0,1,1.07-7.36c1.22-4.25,1.29-4.28,5.62-4.36,2.25-.05,4.5,0,6.75-.08a1.42,1.42,0,0,0,1.51-1.34c.08-.87-.3-1.59-1.17-1.59-5.22,0-10.49-.64-15.61.84-1.32.38-1.83,1.6-.6,2.54,1.52,1.16.85,2.47.63,3.73-.56,3.19-1.59,6.33-1.78,9.53-.27,4.43-2.15,8.75-1,13.26.32,1.22.29,3.15,2.17,2.92s1.46-2,1.24-3.33a26.26,26.26,0,0,1,.59-11.29A38.44,38.44,0,0,0,248,672c1.19-.43,3.18-.74,2.74-2.48-.53-2.06-2.21-.73-3.44-.48C244.17,669.62,241.13,671,237.58,670.32Zm304.49,8.43c-.2,6.39-.76,9.08-3.21,13.33-.71,1.24-.7,2.17.38,2.88,1.33.88,2.13-.16,2.59-1.22a36.22,36.22,0,0,0,2.46-8.59c1.33-8.35,1.29-8.38,9.8-9.95,1.39-.26,3.1-.18,2.77-2.11-.29-1.69-2-1.05-3.16-1.05-1,0-1.94.48-2.92.54-1.56.1-3,1.21-4.89.7a51.45,51.45,0,0,1,1-5.2c1.56-5,2.92-10.26,9.35-11.36,1.06-.19,1.58-1.14,1-2.49-4.08-1-6.9,1.17-9.13,4.16a26.71,26.71,0,0,0-4.69,12.47c-.33,2.26-.66,4.26-3.61,4.22a1.42,1.42,0,0,0-1.45,1.43c0,.87.64,1.28,1.39,1.5S541.32,677.85,542.07,678.75ZM415.89,653.54c-1.74,2.12-1.42,4.62-1.84,6.86-1.41,7.57-3,15.13-2.62,22.92.06,1.14,0,2.45,1.26,2.79s1.81-1,2.36-2c.38-.64.62-1.37,1-2,1.77-2.67,3.84-5,7.08-6.16,1,10.19,1,10.19,2.87,10.68,0-3.87-.13-7.77.08-11.65.07-1.35.14-2.58-.91-3.37-1.39-1-2.6.08-3.71.81a48.75,48.75,0,0,0-6.67,5.62,10,10,0,0,1,0-4.79c.95-5.25,1.81-10.52,2.7-15.79C417.8,656,418,654.5,415.89,653.54ZM486,688.11c-.15,1.47-.28,3.21-.53,4.93-.14,1-.22,1.86.85,2.14,1.32.34,1.59-.67,1.94-1.69a18.38,18.38,0,0,0,.84-7c-.23-3.82,1.2-5.72,4.62-7.3a9.5,9.5,0,0,0,4.73-12.32c-1.74-4.29-6.37-5-9.17-1.34a20.26,20.26,0,0,0-1.79,3.27c-1.93,3.79-.62,8.4-3,12.08a1.13,1.13,0,0,0,.3,1C486.73,683.57,485.66,685.83,486,688.11Zm-37.77-1.06c4.9.08,9.69-3.26,10.68-7.17.8-3.14-.54-6.76-6.53-8.91-4.49-1.61-4.89-5.11-1.22-8.26a19,19,0,0,1,6.93-3.56c1.09-.33,2.24-1,1.8-2.4a2.09,2.09,0,0,0-3.14-1c-3.44,1.94-7.2,3.51-9.62,6.9-2.77,3.88-1.78,8.08,2.43,10.34,1.21.65,2.51,1.11,3.71,1.76,3.38,1.85,3.56,4.67.6,7.1-2,1.64-4.29,1.82-6.71,1.58-1-.09-1.73.18-1.95,1.26-.27,1.25.47,1.86,1.51,2.18A8.28,8.28,0,0,0,448.2,687.05Zm-62.44-5.32c1.77-1.74,3.85-2.92,5.11-5,2-3.33,1.53-6.37-1.53-8-2.66-1.38-5-.16-6.7,3.36-1,2.13-.91,4.55-1.58,6.55-1.74.83-3-1.28-4.64-.15-.57,2.7,1.46,3.49,3.36,3.75a6.24,6.24,0,0,1,4.32,2.33c2,2.36,4.87,2.87,7.87,2.18,1.08-.26,1.8-1,1.44-2.2-.29-.94-.9-1.26-2-1C389.27,684.13,387.25,683.91,385.76,681.73Zm120.75-2.56a3.11,3.11,0,0,1-2.28-.49c-.91-.43-1.82-1.21-2.47.18-.54,1.15.33,1.88,1.19,2.41a5.28,5.28,0,0,0,2.34,1.05,5.37,5.37,0,0,1,4.32,2.3,7.17,7.17,0,0,0,6.75,2.36c1.23-.15,2.85-.41,2.83-1.85,0-1.87-1.73-1.69-3.13-1.65-1.79,0-3.77.48-4.69-1.73.59-1.21,1.8-1.49,2.58-2.26a19.06,19.06,0,0,0,2.5-2.75c2-3,1.29-6.54-1.56-8-2.51-1.32-4.75-.21-6.52,3.08C507.11,674.11,507.19,676.77,506.51,679.17Zm-236.6,7.62c-1.24-5,1.13-10-.06-15.09-.53-2.26-1.67-2.88-3.66-2.65-4.2.49-10.63,7.7-10.63,11.89,0,4,3.26,6.23,6.84,4.53a35.37,35.37,0,0,0,4-2.58C267.12,684.57,266,687.48,269.91,686.79ZM558.47,678c0,6.23,4,9.81,8.17,7.91,3.79-1.75,4.65-5.34,5.1-9a7.69,7.69,0,0,0-3.47-7.41,3.57,3.57,0,0,0-4.67-.12A11,11,0,0,0,558.47,678Zm17.22.23c0,3.93,1.62,6.77,4,7.73a5.42,5.42,0,0,0,6.15-1.36c2.86-2.69,4-8.55,2.29-12.09-1.93-4.08-5.47-4.84-8.87-1.89A10.7,10.7,0,0,0,575.69,678.19Zm-50.26,8.7c1.2-.79,1.29-2.26,1.47-3.53.82-5.56,2.18-10.6,9-11.46a1.58,1.58,0,0,0,1.45-1.86,2,2,0,0,0-2.12-1.73,8,8,0,0,0-5.37,2.26c-1.16,1-2.17,2.15-3.32,3.31-.75-1.9-.58-4-3.46-5-1,5.21,2.47,10.12.46,15a2.45,2.45,0,0,0,.34,2.14A1.41,1.41,0,0,0,525.43,686.89Zm-129.67-1.13a6.68,6.68,0,0,0,8.05,1.34c2.52-1.4,2.35-3.59,1.67-5.85s-1.44-4.24-2.16-6.36c-1.1-3.26-1-3.48,2.23-3.68,1.33-.08,2.74,0,2.56-1.78s-1.65-2.76-3.49-2.55A5.49,5.49,0,0,0,400.1,674c.68,2.26,1.6,4.45,2.23,6.73.84,3,.19,3.8-2.9,4C398.26,684.86,396.92,684.32,395.76,685.76Zm-117.62,1.41a60.09,60.09,0,0,0,1.51-6.16c1.08-4,2.28-8.06,7.43-8.74,1.29-.17,3.06-.43,2.47-2.43s-2.18-1.74-3.72-1.26c-2.88.88-4.83,3-6.59,5.3-1.5-1.41-.54-4.25-3.16-4.7-1.71,1.34-1.2,3-.59,4.48a14.65,14.65,0,0,1,.49,9.51C275.52,685,275.92,686.26,278.14,687.17Zm84.28-18c-1.4,2.07-1.55,2.13-.75,4.28a16.17,16.17,0,0,1,.5,9.89c-.45,1.75-.12,3.13,1.8,3.64.37-.34.63-.48.7-.68a14.31,14.31,0,0,0,.44-1.8c1.1-5.86,2.06-11.79,9.64-12.82A1.28,1.28,0,0,0,375.8,670a2.2,2.2,0,0,0-2.2-1.69,9.22,9.22,0,0,0-5.35,2.4c-1,.82-1.59,2.21-3,2.58C364,672.12,364.72,669.61,362.42,669.2Zm253.77,3.69c-.05,1.12-.05,2.24-.17,3.35s-.4,2.38,1.25,2.51,1.26-1.23,1.39-2.12c.87-6.12.8-12.37,2.51-18.38.22-.76.18-1.52-.7-1.84a1.63,1.63,0,0,0-2.24.72,5.07,5.07,0,0,0-.56,1.74C617.09,663.54,616,668.14,616.19,672.89Zm1.53,10.44c-2-.13-2.78.65-2.76,1.92a2.46,2.46,0,0,0,2.26,2.52c1.46.21,2-.66,2-2S618.64,683.42,617.72,683.33Z"/><path class="cls-2" d="M404.34,290.92a67.62,67.62,0,0,1,46.56,16.44c9.51,8,14.48,18.64,16.79,30.56,2.83,14.53,2.16,29.16-.92,43.5-3.34,15.58-12.09,24.63-26.67,26.5a46.35,46.35,0,0,1-32.77-8,74.8,74.8,0,0,1-25.16-28.7,25.86,25.86,0,0,1-3-11.1,13.34,13.34,0,0,1,5.05-10.81c5-4.27,9.9-3.7,13.85,1.57,2.85,3.8,4.94,8.07,7.21,12.23,2.74,5.05,5.57,10.05,9.9,14a19.93,19.93,0,0,0,5.51,3.82c3.49,1.49,5.8.56,7.14-3,1.51-4,1.12-8.21.72-12.25-1.24-12.39-4.9-23.92-13.38-33.47-8.14-9.16-18.2-15.07-30.53-15.49-18.2-.61-30.61,9-31.51,29.23-.63,14.19,4.09,27.23,12.35,38.52,13,17.73,28.07,33.52,46.72,45.45,9.66,6.18,20.2,10.18,32,10.34,9.87.14,18.2-3.63,25.78-9.51,4.76-3.69,8.74-8.18,12.79-12.6,3.63-4,7.41-7.77,13-8.94s9.89,1.59,11,7.21c1.14,5.92-.41,11.49-2.69,16.73a105.7,105.7,0,0,1-40.17,47.68c-13.24,8.56-27,8.4-41.12,2.58-11.26-4.65-20.73-12.05-29.29-20.5A321,321,0,0,1,346.9,405c-8.13-13-14.47-26.8-16.8-42.13-3.09-20.36,2.81-37.59,17.86-51.8,12.34-11.64,27.35-16.88,43.69-19.38A105.85,105.85,0,0,1,404.34,290.92Z"/><path class="cls-3" d="M454.83,207.35c.43-5.67-.05-10.76.74-15.87,2.61-16.86,11.22-29.86,24.62-40a52.1,52.1,0,0,1,33.83-11c9.59.26,18.8,2.4,26.91,7.93,4.17,2.84,4.48,4.65.61,7.74-11.76,9.39-21.43,20.94-32.49,31-4.8,4.39-10,8.31-16.11,10.76-.58.23-1.14.52-1.74.7-7.12,2.07-11.29-1.12-11.54-8.57-.28-8.65,3.23-15.47,9.71-20.92a45.77,45.77,0,0,1,17-9.14c1.15-.33,2.72-.34,2.66-2-.05-1.39-1.13-2.19-2.33-2.7a11.76,11.76,0,0,0-8-.14c-6.77,1.94-11.77,6.37-16.25,11.53-6.71,7.7-11.1,16.35-10.05,26.89.8,8.1,4.1,15.35,8.38,22.2,4.67,7.47,10.62,13.85,16.7,20.16,9.72,10.1,18.81,20.67,26,32.83a127.15,127.15,0,0,1,16.38,48.55,121,121,0,0,1-7.69,61.24c-2.58,6.56-6.2,12.57-11.71,17.16-4.49,3.74-9.45,6-15.54,4.28-4.35-1.21-6.27-3.41-6.44-7.94-.21-5.46,1.39-10.58,2.88-15.73,3.14-10.87,6.57-21.65,8.63-32.84,5.25-28.5.47-54.82-16.65-78.5a263.84,263.84,0,0,0-23.18-28.43c-13.93-14.5-30.81-23.06-50.48-26.42-7.6-1.29-15.17-3-23-1.61a13.29,13.29,0,0,0-5.59,1.94c-2.94,2.08-2.8,5.14.41,6.81a17.34,17.34,0,0,0,7.21,1.77c6,.3,12,.75,18,.88a51.16,51.16,0,0,1,17.51,3.33c10.7,4.14,13.81,18,3.16,27.13-6.69,5.71-14.93,7.27-23.39,7.66-13.39.61-26-2.71-37.91-8.59-4.36-2.14-8.73-4.3-13-6.69a77.43,77.43,0,0,0-33-10c-5-.36-6.3-3.48-3.3-7.63a62.65,62.65,0,0,1,18.58-16.64,96.49,96.49,0,0,1,44.81-14.24c19.06-1.22,37.08,3.31,54.85,9.41C448.15,204.68,451.24,206,454.83,207.35Z"/><path class="cls-4" d="M328.26,582.87c-.28-7.6.78-15.17.74-23-2,.32-3.61.6-5.28,1-2.07.51-4.16-.07-5.07-2.2s-.07-4.14,2-5.43a20.67,20.67,0,0,1,6.64-2.46c2.19-.46,3.08-1.25,3.31-3.61A46.18,46.18,0,0,1,332.68,537c1.22-3.57,3.18-4.45,6.62-3,5.15,2.21,6.72,5.91,4.75,11-.3.79-.92,1.53-.58,2.59,1.1,1,2.55.35,3.84.52,2.89.39,4.29,1.88,4.24,4.69s-1.43,4.21-4.42,4.49c-2.07.19-4.53-.84-6.13.69s-.91,4-1.24,6.08a90.91,90.91,0,0,0-1,20.91c.15,2.34.24,5.48,2.65,6.15,2.66.75,4.07-2.18,5.74-4,4.11-4.56,4.77-10.07,5.06-15.85.56-11,2.38-21.79,6.63-32.06a19.87,19.87,0,0,1,3.06-5.11c2.39-2.89,5.35-3.1,8.12-.63,3.95,3.52,3.91,7.27.48,11.26-6.36,7.4-8.79,16.13-8.32,26.28,2.39-1.2,3.37-3,4.81-4.29,3.27-2.93,7.16-3.93,10.28-2.32,3.44,1.77,4.16,4.94,4.26,8.53.13,4.86-.91,9.68-.18,14.55.44,2.87,1.61,3.65,3.93,2,3.11-2.19,5.5-4.78,5.28-9.21a73.59,73.59,0,0,1,.78-12.3c.57-4.6,2.69-6.5,6.38-6.28a5.21,5.21,0,0,1,5.14,5.7c-.42,4.71-1.05,9.4-1.62,14.1a16.23,16.23,0,0,0,.49,7.77c.83,2.26,2.26,2.55,3.76.7a14.88,14.88,0,0,0,2.18-4.73c1.91-5.57,2.61-11.39,3.73-17.13.87-4.42,3-6.6,6.43-6.32s5.68,3.25,5.68,7.54c0,6.25-.1,12.5-.13,18.75,0,1.09-.31,2.21.38,3.57a78.74,78.74,0,0,0,8-8.2c1.47-1.6,3.11-4.36,5.37-2.37,1.88,1.65-.21,3.88-1.52,5.5-3.76,4.66-7.51,9.35-11.44,13.87-2.4,2.77-1.6,6.16-2.13,9.24-1,5.8-2,11.52-4.59,16.86a19.82,19.82,0,0,1-7,8.12c-4.89,3.19-10.47,1.34-12.49-4.11-1.4-3.75-.74-7.36.65-10.93a28.85,28.85,0,0,1,8.19-11.5c4.08-3.5,6.25-7.45,5.62-12.95-.28-2.4.19-4.89.35-7.92-1.63,1.72-1.43,3.46-2.1,4.85-.86,1.79-1.52,3.71-2.54,5.4-3.74,6.19-10.67,6-14.27-.4-1.17-2-1.66-4.34-2.48-6.9-2.59,3-4.78,5.81-7.28,8.34-4.8,4.88-9.4,3.64-11.28-3-1.24-4.37-1.15-8.88-1.17-13.38,0-1.55.46-3.29-1.21-4.59-3,.61-4,3.1-5.19,5.39-2.22,4.46-2.78,9.24-2.61,14.2.13,3.75-1.17,5.19-4.48,5.75-2.77.47-4.69-.92-5.43-3.67-.81-3-.37-6.19-.82-9.28-1.42-.23-1.46,1-1.8,1.58a34,34,0,0,1-5.54,8c-4.29,4.24-9.4,3.62-12.52-1.56-2.1-3.49-2.65-7.48-3.12-11.45-.15-1.23.12-2.53-.78-3.58Zm76.57,42.56c3.71-1.27,7-7.37,6.8-12.19A18.81,18.81,0,0,0,404.83,625.43Z"/><path class="cls-4" d="M175.27,579a46.39,46.39,0,0,0-11.67,3.89c-1.86.88-3.68,1.72-5.31-.27-1.88-2.29-3.3-4.84-2.42-7.9.41-1.45,2.11-1.66,3.35-2.14,5.34-2,11-3.07,16.88-4.36.05-12,.83-23.88-6.7-34.21-1.2-1.64-.5-2.84.49-4a15.67,15.67,0,0,1,6.34-4.53c3.82-1.47,5.72-.68,7.52,3,2.22,4.56,2.81,9.51,3.52,14.45,1,7,.69,13.95.74,20.94a4.93,4.93,0,0,0,.53,3c5.91-1,12-.18,18.47.2.66-4.63.45-9,1.18-13.3,1.16-6.88,2.31-13.73,5-20.24,1.12-2.67,2.68-3.25,5.26-2.59a13.88,13.88,0,0,1,5.6,2.86,2.76,2.76,0,0,1,.73,3.94c-4.59,8.08-6.47,16.87-7.05,26.1-.8,12.71,1.18,24.8,7,36.2.11.22.23.44.35.66,1.1,2.14,3.32,4.18,1.29,6.79a12.7,12.7,0,0,1-8.86,5.07c-2,.21-3-1.4-3.8-3.07a71.72,71.72,0,0,1-5.58-19.32c-.57-3.58-.59-7.19-1.05-10.78-.28-2.12-1.15-3.13-3.21-3.27a107.46,107.46,0,0,0-16.23.16c-.91,6.1-1.71,12.12-2.74,18.09a70.51,70.51,0,0,1-4.44,15.41c-.91,2.15-2.15,3.1-4.63,2.41a28.47,28.47,0,0,1-4.26-1.34c-5.13-2.32-5.42-3.34-2.76-8.34C172.68,595.27,174,587.34,175.27,579Z"/><path class="cls-5" d="M648.84,560.34c-1.56-.35-2.94.34-4.39.62-2.69.51-5-.58-5.57-2.62-.8-2.65.56-4.32,2.79-5.41a12.26,12.26,0,0,1,4.19-1.55c4.13-.27,5.34-2.82,5.53-6.37a41.49,41.49,0,0,1,1.63-8c.85-3.29,3.13-4.32,6.29-3.09,5.39,2.09,7.08,5.81,5.15,11.13-.33.89-1,1.77-.56,3,1.31.07,2.67.1,4,.25,2.78.29,3.93,1.61,3.94,4.41s-1.25,4.27-3.83,4.63c-.12,0-.25,0-.37,0-2.07.25-4.5-.79-6.16.65s-1.06,4-1.3,6.07c-.93,7.78-2.12,15.58-.56,23.44.31,1.51.58,3.07,2.24,3.59,1.87.58,3-.82,4.12-2,1.78-1.81,2.75-4.16,4.17-6.2.59-.85,1.25-1.83,2.37-1.37a2.21,2.21,0,0,1,1.18,2.85c-2.22,6.29-5.05,12.33-10.37,16.59-3.64,2.92-8.59,1.33-11-3.15a53.79,53.79,0,0,1-2.25-5.51c-1.4,2.13-2.5,4-3.81,5.77-4.65,6.16-11,5.52-14.5-1.39a28,28,0,0,1-2.47-9.5c-.87,2.46-1.64,5-2.65,7.37-1.59,3.79-3.62,7.29-8.38,7.45-3.93.13-7.2-2.81-8.83-7.91a46.14,46.14,0,0,1-1.87-18.85c.3-3,.23-6,1.06-8.9,1-3.57,3.38-5.23,6.93-4.52a5.41,5.41,0,0,1,4.06,6.55c-1,5-1,10.16-1.74,15.21a14.87,14.87,0,0,0,.64,5.54c.23,1,.6,1.93,1.85,2a2.34,2.34,0,0,0,2.32-1.58,46.7,46.7,0,0,0,4-12.78c.62-3.17,1-6.4,1.63-9.56,1-4.81,4.83-6.71,8.94-4.5,2.72,1.46,3.36,3.94,2.77,6.73-.89,4.18-.43,8.46-1.17,12.66a21.26,21.26,0,0,0,.7,8.53c.7,3,3.11,3.7,5.2,1.4,2.69-2.94,4.65-6.6,4.22-10.49-.66-5.91.46-11.7.22-17.55C649.18,562.78,649.54,561.5,648.84,560.34Z"/><path class="cls-4" d="M472.47,608.34c-1.73.17-4.32-.39-6.87-.9a8.27,8.27,0,0,1-5.83-11.4c1.06-2.43,3.5-3.5,6.64-2.51A72.94,72.94,0,0,0,477,595.88a19.79,19.79,0,0,0,9.52-1.19,6.19,6.19,0,0,0,4.42-5.52c.24-2.53-2-3.6-3.83-4.58-4.3-2.29-9-3.66-13.49-5.5a49.42,49.42,0,0,1-12.18-6.51c-6.42-5.06-7.59-10-5.88-17.56,2.17-9.55,8.9-15.44,17.23-19.54,7.37-3.62,15.15-5.5,23.53-3.8,6.25,1.26,10.45,5.16,11.17,11.39a31.5,31.5,0,0,1-2,15.07,9.39,9.39,0,0,1-11.12,5.33c-2.84-.89-3.61-2.24-2.56-5.06a68.55,68.55,0,0,0,3.33-9.9,13.73,13.73,0,0,0,.33-4.46c-.46-3.61-1.77-4.75-5.38-4.85-10.44-.29-21.4,9.41-21.58,18.94-.08,3.89,1.61,6.65,4.52,9,4.6,3.62,10,5.5,15.42,7.47,4.33,1.59,8.73,3,12.57,5.71,5.62,3.92,6.68,9.62,2.76,15.25-3.11,4.47-7.57,7.18-12.48,9.22A48.69,48.69,0,0,1,472.47,608.34Z"/><path class="cls-4" d="M520.56,566.8c2.09-1.78,3.8-3.5,6.12-4.2,9.44-2.85,14.44.83,15.06,8.93.82,10.72-3.26,20.05-11.33,27.32-2.73,2.47-6.41,3.12-10.13,3.56A88.31,88.31,0,0,0,523,629.25c1,4.06.18,6.3-3.09,8.31-4.4,2.69-8.21.6-8.79-4.2a285.49,285.49,0,0,1-1.9-45.54c.27-7.2.05-14.47,1.12-21.65.55-3.61.92-4.23,4.1-4.39,3.9-.2,5,.56,5.75,4.1A5.26,5.26,0,0,0,520.56,566.8Zm2.77,25A23,23,0,0,0,532.21,576c.18-1.34.26-2.88-1.34-3.54a3.57,3.57,0,0,0-4.07,1.07A18.18,18.18,0,0,0,521,587.89,4,4,0,0,0,523.33,591.83Z"/><path class="cls-6" d="M299.52,208.62c-7.73-.36-15.45-.8-23-2.41a17.49,17.49,0,0,1-7.13-3.16c-5.32-4-5.23-10.28.32-14,5.76-3.84,12.29-4.65,19-3.92,10.23,1.11,17.91,6.42,23.35,15.07,2.75,4.37,1.66,6.93-3.48,8C305.54,208.81,302.52,208.54,299.52,208.62Z"/><path class="cls-7" d="M571.9,582.17c.11-2.35,0-4.71.69-7,.93-3,3-4.6,5.64-4.23a5.88,5.88,0,0,1,5.3,5.82c-.11,2.61-.43,5.22-.76,7.81-.51,4,.9,7.45,3.31,7.92,2.24.44,4.21-1.53,5.44-5.68a21.94,21.94,0,0,0-.16-13.62c-1.39-4-4.1-5.36-8.25-4.47-.36.08-.69.32-1.05.38-1.5.22-3.2,2-4.44.31s.12-3.63,1.13-5.15c3.59-5.45,13.21-5.77,18.68-.84,4.83,4.35,5.77,10.15,5.78,16a28.35,28.35,0,0,1-4,15c-3.72,6.11-9.82,8.31-14.37,7.69-6.07-.83-10.56-5.32-12-11.77A26.37,26.37,0,0,1,571.9,582.17Z"/><path class="cls-8" d="M290.69,293.76c-5.43.09-7.75-3.08-5.92-7.81,2.51-6.49,7.5-10.83,13.25-14.24,6.11-3.63,12.77-6.16,19.46-8.54a9.41,9.41,0,0,1,4.42-.55c3.73.51,5.61,3.47,4.51,7.05a12.23,12.23,0,0,1-2.51,4.57,60.12,60.12,0,0,1-31.71,19.28C291.58,293.66,291,293.71,290.69,293.76Z"/><path class="cls-9" d="M269.64,601.58l-2.14-.21c.09-3.37-3.88-5-3.6-8.51,0-.07-.43-.24-.66-.25-2.12-.16-1.68-1.75-1.75-3.06.49-.06,1.07-.1,1.27-.6s.29-1.22-.61-1.34c-.91.42-.55,1.26-.66,1.94h-2.25a1.46,1.46,0,0,0-.75-1.5c.11-.36.1-.9.33-1,3.24-1.89,4.5-4.52,4.29-8.39-.16-3.16,2.1-6.35,4-8.18,2.3-2.25,5.21-6.65,10-3.45.39.27,1.21-.09,1.82-.15H279c-.58,2.43,2.28,3.4,2.38,5.61,0,.53,1,.6,1.64.45a1.2,1.2,0,0,0,1-1.39c-.26-2.43,1.33-4,2.51-6.46,1.95,2.5,4.09-.21,6.47,1.05,0,3.26.94,7.08-.24,10.06-1.41,3.6-.87,7-1.18,10.49a3.74,3.74,0,0,0,3.05,4.38.26.26,0,0,1,0,.37c.16,2,1.46,1.26,2.64,1.18,1.78-.12,1.83-1.2,1.67-2.51a.7.7,0,0,1,.28-.48c1,.66,2.75,1,1.16,2.8a1.51,1.51,0,0,0,.53,2.63.79.79,0,0,1-.33.51c-2.67,1.55-5.74,2.51-7.6,5.23-.78,1.13-2,.63-3,.83l0,0c.14-.47.53-1.25.4-1.35-3.13-2.37-1.85-4.11,1.28-5.59-2.09-1.2-4.13-.07-5.73-1.13-.65-1.57-.24-3.19-.36-4.77,1.36-2.42-2.1-.81-1.75-3,.08-.33,2.27-.05,1.51-1.67-.38-.79-1.29-.58-2-.62a5.12,5.12,0,0,1-.22-4.92,1.67,1.67,0,0,0-.75-2.22,1.37,1.37,0,0,0-2.15.58l-1-1.44c.39-1.68-1.66-1.77-1.64-3.36-2.14,1.28-4.12,2.06-3.9,4.67h0c-2.36.08-3.05,1.32-3.16,3.62-.14,2.86.16,5.68.1,8.53-.09,4.44,0,4.44,4.15,6,.54-.8.26-1.68.23-2.53l0,0,3.08.09c.44.86,2.28,1.32,1,2.66-1.55,1.69-3.35,4.53-5.26,4.1-3-.67-2.41.75-2.5,2.29l0,0Z"/><path class="cls-7" d="M685.3,602.31a12.37,12.37,0,0,1-7.08-1.83c-1.2-.74-2.2-1.75-1.93-3.35s1.81-1.94,3.14-2.16,2.49,0,3.72-.15c3-.35,3.44-1.47,1.52-3.85a35.76,35.76,0,0,0-3.46-3.39c-1.18-1.11-2.5-2.09-3.56-3.3-3.27-3.73-3.69-7-1.29-11.3a26.73,26.73,0,0,1,12.25-11.16c3.35-1.59,6.9-.34,8.28,2.58a6.16,6.16,0,0,1-3,8.41c-.67.35-1.36.65-2,1.05-4.1,2.61-4.39,4.84-1.11,8.33,1.45,1.55,2.89,3.1,4.29,4.69,5.52,6.27,3.49,12.86-4.55,15A22.26,22.26,0,0,1,685.3,602.31Z"/><path class="cls-10" d="M556.42,567.87c2-.83,3.12-2.61,4.66-3.8q5.77-4.44,8.68,0c2.41,3.74,1.51,7.69-2.29,9.91-1.4.81-2.85,1.55-4.24,2.38-4.26,2.59-6.31,6.55-7,11.35a60.64,60.64,0,0,0-.64,10.43c.11,3.35-1.22,4.6-4.71,4.8-3,.17-4.79-1.52-5.19-4.56-1.32-10.32-.55-20.68-.69-31,0-3.67,1.43-5.16,5.08-5.57,3.34-.38,4.89.9,5.66,4.6A6.61,6.61,0,0,0,556.42,567.87Z"/><path class="cls-11" d="M362.94,167.56c-.11,4.76-.57,9-4.71,10.59s-7.34-1.32-10-4.25a20.26,20.26,0,0,1-4.36-7.74,38.36,38.36,0,0,1-.52-20.33c1.26-5.55,4.84-6.43,8.89-2.36C359,150.32,362.16,158.82,362.94,167.56Z"/><path class="cls-12" d="M310.18,601.68a1.7,1.7,0,0,1-1.49-.86c1.27-1.51,1.44-3.13-.52-3.92a5,5,0,0,1-3-4.78c-.07-2.15-1.53-2.46-3-3.17A14.55,14.55,0,0,0,305,578.73a65.86,65.86,0,0,1,0-6.74c0-1.57-.41-3.25,2.05-3.66,1.23-.2,1.12-1.52.47-2.42a4.13,4.13,0,0,1-1-2.3,41.39,41.39,0,0,1,2.91-17.85c.77-1.9,2.39-3.75-.05-5.71,1.43-1,2.71-.65,3.9-.75s2,1,3.19.49c.84-.77.46-1.81.56-2.75,1.81.21,2,1.64,2.25,3-.86,1.05.22,1.14.75,1.5-2.22,3.94-3.11,8.39-4.23,12.65-.55,2.06-2,4-1.74,6.24.78,6.83-2.22,13.31-1.75,20.19.16,2.24-1.32,4.57.14,7,.54.92-.32,2-1.47,2.14s-1.32-.85-1.46-1.72c-.08-.49-.11-1-.78-1.14a4.25,4.25,0,0,0-1.83,1.71l1.72,3.58c4.64-3.52,6.76,2.22,10.9,1.93-1,1.56-2.24,1.86-2.4,2.91-.4,2.49-1.9,3.27-4.25,3A2.37,2.37,0,0,0,310.18,601.68Zm3.35-54.85c-1.65,2.14-1.65,2.14-.09,3.4C314.3,549.28,314.05,548.27,313.53,546.83Zm3.2-4.49c-.11-.18-.18-.47-.32-.51a.61.61,0,0,0-.57.22.44.44,0,0,0,.42.67C316.41,542.73,316.57,542.48,316.73,542.34Z"/><path class="cls-12" d="M242,589.36a1.17,1.17,0,0,1-.56.27c-1,0-2.15-.34-2.35,1.08a3.31,3.31,0,0,0,1.43,3.22c3.33,2.6,8.87,2.24,12.37-.82l3.11,2.07c-6.19,2-10.36,7.24-17.07,6.44l0,0a2.65,2.65,0,0,0-1.9-2.88c-5.21-1.88-6.49-6.46-6.86-11a31.64,31.64,0,0,1,.93-11.56,28,28,0,0,1,4-7.9c1-1.58,3.74-.33,4-2.75,2.72.54,4,3,6,4.5-1.47,0-1.53,1-1.5,2.09l-1.39,1a12.37,12.37,0,0,1-4-.6c-.92,1.29-2.75,2.44-1.85,4.1a19.08,19.08,0,0,1,1.43,4.39c.43,1.58,1.5,1.5,2.07-.18l1.34-.34c.81.36,1.5.74,2.26-.26,1.48-2,3.1-3.78,4.66-5.65h4.5c-.17,1.16.58,2.78-1.5,3-1.16.17-2.79-.58-3,1.5a1.33,1.33,0,0,0-1.5,1.5c.07,1.76.12,3.49-1.3,4.88-.43.42-.66,1.14-1.44.8-.62-.28-1.54-.37-1.22-1.48.16-.57.43-1.21-.49-1.48a5.77,5.77,0,0,0-2.89,2.73C239.86,587.41,242,587.48,242,589.36Z"/><path class="cls-13" d="M296.3,677c2-1.86,3.82-3.72,5.82-5.35,2.51-2,3.78-1.51,4.09,1.65.22,2.17.25,4.36.38,6.89,2.33-1.15,3-3.22,4.45-4.48.84-.73,1.5-1.69,2.35-2.4s1.82-1.57,3-1.1,1.21,1.78,1.25,2.89c.09,2.76.29,5.47,1.76,7.93.56.93.81,2-.55,2.43a1.93,1.93,0,0,1-2.72-1.24c-.69-2.23-1.25-4.51-1.92-7-3.74,1.67-4.31,6.34-7.77,8.28-3.72-2.46-2.54-6.62-4.05-10.27-3,2.61-5.83,5.19-7.17,9.06-.37,1.11-.52,2.82-2.15,2.59-1.79-.25-1.65-2-1.57-3.32a35.61,35.61,0,0,1,.8-5.53,24.89,24.89,0,0,0,.74-8.88c-.19-1.38.05-2.67,1.6-2.88,1.72-.22,2,1.21,2.05,2.48a12.21,12.21,0,0,1-.29,4.46A5.24,5.24,0,0,0,296.3,677Z"/><path class="cls-14" d="M310.18,601.68a2.37,2.37,0,0,1,2.66-1.61c2.35.27,3.85-.51,4.25-3,.16-1.05,1.37-1.35,2.4-2.91-4.14.29-6.26-5.45-10.9-1.93l-1.72-3.58a4.25,4.25,0,0,1,1.83-1.71c.67.14.7.65.78,1.14.14.87.23,1.89,1.46,1.72s2-1.22,1.47-2.14c-1.46-2.46,0-4.79-.14-7-.47-6.88,2.53-13.36,1.75-20.19-.26-2.23,1.19-4.18,1.74-6.24,1.12-4.26,2-8.71,4.23-12.65h1.5c-5.44,13.66-7.6,28-8.23,42.55a11.76,11.76,0,0,0,.74,5.13c.95,2.31,2.24,2.7,4.29,1.24,2.5-1.77,3.94-4.42,5.57-6.92s2.29-2.59,4.4-.67l0,.09a40.67,40.67,0,0,1-9.75,16.49C316.28,601.71,313.59,603.36,310.18,601.68Z"/><path class="cls-15" d="M605.41,690.71c-1.94-2.24-1.53-5.1-2.24-7.93-1.24,1.1-2.34,2.23-3.59,3.15-1.46,1.07-3.13,1.64-4.89.63a4.74,4.74,0,0,1-2.44-4.72c.41-4.46,2.76-7.93,6.08-10.76,1.4-1.19,3.09-.53,4.84-.25a86,86,0,0,1,1.1-9.1c.6-2.65-.48-6.18,3.33-8.09,1.07,4,0,7.5-.6,10.73a64.48,64.48,0,0,0-.17,23C607.13,689.1,607.09,689.11,605.41,690.71Zm-9.17-6.84c2.88.11,7.1-5.55,6.27-8-.9-2.63-2.62-3.06-4.3-.94-1.45,1.84-2.87,3.75-3.29,6.17C594.68,682.54,595,683.57,596.24,683.87Z"/><path class="cls-16" d="M339.24,658c1.32-2.11,3.16-2.22,4.61-2.34,3.84-.31,7.72-.2,11.59-.23,1.15,0,2.48.11,2.38,1.65s-1.44,1.43-2.58,1.45c-2.62,0-5.24.12-7.86.07a2.76,2.76,0,0,0-3.05,2.19c-.74,3-1.85,5.94-1.8,9.22,3,1.19,5.65-.3,8.4-.7a11.75,11.75,0,0,0,2.49-.77c1.11-.42,2.06-.24,2.42.93s-.5,1.69-1.33,2a34.82,34.82,0,0,1-9.07,2.06l-3.28.19a25.91,25.91,0,0,0-.62,11.64c.19,1.12.73,2.75-1.08,3.07-2,.35-2.06-1.52-2.35-2.73-1.09-4.58.72-9,1-13.54.17-3.07,1.13-6.09,1.78-9.13C341.27,661.12,341.74,659.2,339.24,658Z"/><path class="cls-16" d="M237.58,670.32c3.55.63,6.59-.7,9.72-1.32,1.23-.25,2.91-1.58,3.44.48.44,1.74-1.55,2-2.74,2.48a38.44,38.44,0,0,1-11,1.83,26.26,26.26,0,0,0-.59,11.29c.22,1.28.72,3.09-1.24,3.33s-1.85-1.7-2.17-2.92c-1.17-4.51.71-8.83,1-13.26.19-3.2,1.22-6.34,1.78-9.53.22-1.26.89-2.57-.63-3.73-1.23-.94-.72-2.16.6-2.54,5.12-1.48,10.39-.86,15.61-.84.87,0,1.25.72,1.17,1.59a1.42,1.42,0,0,1-1.51,1.34c-2.25.05-4.5,0-6.75.08-4.33.08-4.4.11-5.62,4.36A18.08,18.08,0,0,0,237.58,670.32Z"/><path class="cls-14" d="M238.92,601.62c6.71.8,10.88-4.41,17.07-6.44l-3.11-2.07c-3.5,3.06-9,3.42-12.37.82a3.31,3.31,0,0,1-1.43-3.22c.2-1.42,1.39-1.09,2.35-1.08.38,3.28,2.47,4.86,5.88,4,7.12-1.91,11.13-7.18,13.5-13.71,1.7-4.68,3-9.47,6.87-12.94,3.43-3.06,8.19-3.12,11.21-.09-.61.06-1.43.42-1.82.15-4.78-3.2-7.69,1.2-10,3.45-1.87,1.83-4.13,5-4,8.18.21,3.87-1.05,6.5-4.29,8.39-.23.14-.22.68-.33,1a3.28,3.28,0,0,0-2.79,3c0,.2.46.6.75.65,1.65.3,1.76-1.52,2.79-2.1h2.25c.07,1.31-.37,2.9,1.75,3.06.23,0,.66.18.66.25-.28,3.47,3.69,5.14,3.6,8.51-4.24-1.94-5-3-7.39-10.3-2.79,3-4.89,6.38-8.22,8.6C247.85,602.38,243.61,603.42,238.92,601.62Z"/><path class="cls-17" d="M542.07,678.75c-.75-.9-1.58-.53-2.26-.74s-1.43-.63-1.39-1.5a1.42,1.42,0,0,1,1.45-1.43c3,0,3.28-2,3.61-4.22a26.71,26.71,0,0,1,4.69-12.47c2.23-3,5.05-5.13,9.13-4.16.55,1.35,0,2.3-1,2.49-6.43,1.1-7.79,6.33-9.35,11.36a51.45,51.45,0,0,0-1,5.2c1.89.51,3.33-.6,4.89-.7,1-.06,2-.54,2.92-.54,1.14,0,2.87-.64,3.16,1.05.33,1.93-1.38,1.85-2.77,2.11-8.51,1.57-8.47,1.6-9.8,9.95a36.22,36.22,0,0,1-2.46,8.59c-.46,1.06-1.26,2.1-2.59,1.22-1.08-.71-1.09-1.64-.38-2.88C541.31,687.83,541.87,685.14,542.07,678.75Z"/><path class="cls-18" d="M415.89,653.54c2.14,1,1.91,2.48,1.66,4-.89,5.27-1.75,10.54-2.7,15.79a10,10,0,0,0,0,4.79,48.75,48.75,0,0,1,6.67-5.62c1.11-.73,2.32-1.85,3.71-.81,1.05.79,1,2,.91,3.37-.21,3.88-.08,7.78-.08,11.65-1.91-.49-1.91-.49-2.87-10.68-3.24,1.15-5.31,3.49-7.08,6.16-.41.62-.65,1.35-1,2-.55.94-1,2.32-2.36,2s-1.2-1.65-1.26-2.79c-.42-7.79,1.21-15.35,2.62-22.92C414.47,658.16,414.15,655.66,415.89,653.54Z"/><path class="cls-14" d="M251,577.55c2.08-.22,1.33-1.84,1.5-3v-4.81c0-3.55-1.76-6.26-4.56-7.1a7.92,7.92,0,0,0-8.94,2.91c-.21,2.42-2.91,1.17-4,2.75a28,28,0,0,0-4,7.9,31.64,31.64,0,0,0-.93,11.56c.37,4.57,1.65,9.15,6.86,11a2.65,2.65,0,0,1,1.9,2.88c-3.68-.44-6-2.77-7.89-5.69-6-9.61-3.26-25.31,5.7-32.32,3.92-3.07,10.16-3.58,13.69-1.12,4,2.77,5.09,8.23,3.16,14.24s-6.3,9.69-11.57,12.58c0-1.88-2.13-2-2.84-3.36a5.77,5.77,0,0,1,2.89-2.73c.92.27.65.91.49,1.48-.32,1.11.6,1.2,1.22,1.48.78.34,1-.38,1.44-.8,1.42-1.39,1.37-3.12,1.3-4.88a1.33,1.33,0,0,0,1.5-1.5c1.07-.21,1.43,1.16,2.42,1.14C251.34,579.44,250.85,578.43,251,577.55Zm-13.23-13c0,.1-.12.21-.1.28.09.33.25.35.4,0a.4.4,0,0,0-.06-.29S237.84,564.58,237.76,564.57Z"/><path class="cls-19" d="M486,688.11c-.31-2.28.76-4.54-1.26-6.23a1.13,1.13,0,0,1-.3-1c2.43-3.68,1.12-8.29,3-12.08a20.26,20.26,0,0,1,1.79-3.27c2.8-3.66,7.43-2.95,9.17,1.34a9.5,9.5,0,0,1-4.73,12.32c-3.42,1.58-4.85,3.48-4.62,7.3a18.38,18.38,0,0,1-.84,7c-.35,1-.62,2-1.94,1.69-1.07-.28-1-1.19-.85-2.14C485.69,691.32,485.82,689.58,486,688.11Zm2.94-10.3c4.71-1.16,7.22-3.75,7.26-7.43,0-1.54-.22-3.11-1.95-3.63s-2.76.58-3.5,2A18.55,18.55,0,0,0,488.91,677.81Z"/><path class="cls-14" d="M319.24,540.05c-.26-1.37-.44-2.8-2.25-3-.56-2.43-2.59-1.74-3.72-1.2-1.59.77-.51,2.27,0,3.46-1.19.1-2.47-.29-3.9.75,2.44,2,.82,3.81.05,5.71a41.39,41.39,0,0,0-2.91,17.85,4.13,4.13,0,0,0,1,2.3c.65.9.76,2.22-.47,2.42-2.46.41-2,2.09-2.05,3.66a65.86,65.86,0,0,0,0,6.74A14.55,14.55,0,0,1,302.12,589c1.48.71,2.94,1,3,3.17a5,5,0,0,0,3,4.78c2,.79,1.79,2.41.52,3.92-3.53-1.84-3.7-5.55-4.87-8.85-1.57.5-1.57,2.48-2.95,3.06a1.51,1.51,0,0,1-.53-2.63c1.59-1.81-.12-2.14-1.16-2.8,3.62-3.88,4.34-8.5,4.39-13.7.1-11.69,2.29-23.18,4.7-34.6a30.36,30.36,0,0,1,1-3.2c1.38-4.13,2.8-5.25,5.93-4.69,4.19.76,6.61,3.61,6.39,7.54C321.08,539.93,320.13,540.06,319.24,540.05Z"/><path class="cls-20" d="M448.2,687.05a8.28,8.28,0,0,1-1.51-.23c-1-.32-1.78-.93-1.51-2.18.22-1.08,1-1.35,1.95-1.26,2.42.24,4.69.06,6.71-1.58,3-2.43,2.78-5.25-.6-7.1-1.2-.65-2.5-1.11-3.71-1.76-4.21-2.26-5.2-6.46-2.43-10.34,2.42-3.39,6.18-5,9.62-6.9a2.09,2.09,0,0,1,3.14,1c.44,1.37-.71,2.07-1.8,2.4a19,19,0,0,0-6.93,3.56c-3.67,3.15-3.27,6.65,1.22,8.26,6,2.15,7.33,5.77,6.53,8.91C457.89,683.79,453.1,687.13,448.2,687.05Z"/><path class="cls-17" d="M385.76,681.73c1.49,2.18,3.51,2.4,5.63,1.88,1.12-.27,1.73,0,2,1,.36,1.21-.36,1.94-1.44,2.2-3,.69-5.85.18-7.87-2.18a6.24,6.24,0,0,0-4.32-2.33c-1.9-.26-3.93-1-3.36-3.75,1.66-1.13,2.9,1,4.64.15.67-2,.54-4.42,1.58-6.55,1.72-3.52,4-4.74,6.7-3.36,3.06,1.6,3.57,4.64,1.53,8C389.61,678.81,387.53,680,385.76,681.73Zm-.82-3.66c1.89-.8,3.48-1.81,4-3.88a2,2,0,0,0-.91-2.55c-1.17-.6-1.88.21-2.38,1.07C384.78,674.3,384,676,384.94,678.07Z"/><path class="cls-17" d="M506.51,679.17c.68-2.4.6-5.06,1.86-7.4,1.77-3.29,4-4.4,6.52-3.08,2.85,1.51,3.59,5.06,1.56,8a19.06,19.06,0,0,1-2.5,2.75c-.78.77-2,1-2.58,2.26.92,2.21,2.9,1.78,4.69,1.73,1.4,0,3.1-.22,3.13,1.65,0,1.44-1.6,1.7-2.83,1.85a7.17,7.17,0,0,1-6.75-2.36,5.37,5.37,0,0,0-4.32-2.3,5.28,5.28,0,0,1-2.34-1.05c-.86-.53-1.73-1.26-1.19-2.41.65-1.39,1.56-.61,2.47-.18A3.11,3.11,0,0,0,506.51,679.17Zm3.56-1a5.84,5.84,0,0,0,4.22-3.39c.67-1.2.83-2.44-.59-3.2s-2.17.33-2.66,1.29C510.22,674.5,509.42,676.21,510.07,678.19Z"/><path class="cls-17" d="M269.91,686.79c-3.88.69-2.79-2.22-3.5-3.9a35.37,35.37,0,0,1-4,2.58c-3.58,1.7-6.85-.52-6.84-4.53,0-4.19,6.43-11.4,10.63-11.89,2-.23,3.13.39,3.66,2.65C271,676.81,268.67,681.74,269.91,686.79Zm-3.64-14.71a14.28,14.28,0,0,0-7.42,7.39c-.91,2.22-.21,3.41,1.69,3.29C264.55,682.53,268.16,676.16,266.27,672.08Z"/><path class="cls-15" d="M475.76,680.1c-2.15.9-3.23,3.06-5.07,4.33-1.67,1.15-3.24,2.37-5.45,1.29s-1.55-3.11-1.3-4.89c.46-3.44,1-6.86,1.55-10.29.1-.65.52-1.1,1.6-1.34,1.93,4.37-.91,8.65-.28,13.15,1.34.68,2.31-.24,3.35-1.15a39.36,39.36,0,0,0,6.6-8.07c.62-.93,1.23-1.88,1.92-2.75a1.3,1.3,0,0,1,1.65-.47,1.23,1.23,0,0,1,.59,1.59A44.06,44.06,0,0,0,479,685.09a1.43,1.43,0,0,1-1.63,1.61c-1.06-.07-1.47-.82-1.44-1.81,0-1.5.1-3,.16-4.48.46-.34.63-.72.2-1.21Z"/><path class="cls-19" d="M558.47,678a11,11,0,0,1,5.13-8.58,3.57,3.57,0,0,1,4.67.12,7.69,7.69,0,0,1,3.47,7.41c-.45,3.62-1.31,7.21-5.1,9C562.52,687.77,558.43,684.19,558.47,678Zm10.47-1.08c0-2.55-1.16-4.09-3.25-4.19-2.57-.12-4.27,2.23-4.28,5.89,0,2.86,1.27,4.72,3.18,4.65S568.9,679.66,568.94,676.88Z"/><path class="cls-20" d="M575.69,678.19a10.7,10.7,0,0,1,3.55-7.61c3.4-3,6.94-2.19,8.87,1.89,1.68,3.54.57,9.4-2.29,12.09a5.42,5.42,0,0,1-6.15,1.36C577.31,685,575.71,682.12,575.69,678.19Zm2.95.63c.05,3.37,2.12,5.29,4.38,4.06s3.61-5.89,2.71-8.24a2.8,2.8,0,0,0-2.81-1.93C580.26,672.57,578.58,675,578.64,678.82Z"/><path class="cls-20" d="M525.43,686.89a1.41,1.41,0,0,1-1.56-.93,2.45,2.45,0,0,1-.34-2.14c2-4.85-1.45-9.76-.46-15,2.88,1,2.71,3.13,3.46,5,1.15-1.16,2.16-2.33,3.32-3.31a8,8,0,0,1,5.37-2.26,2,2,0,0,1,2.12,1.73,1.58,1.58,0,0,1-1.45,1.86c-6.81.86-8.17,5.9-9,11.46C526.72,684.63,526.63,686.1,525.43,686.89Z"/><path class="cls-20" d="M395.76,685.76c1.16-1.44,2.5-.9,3.67-1,3.09-.22,3.74-1,2.9-4-.63-2.28-1.55-4.47-2.23-6.73a5.49,5.49,0,0,1,4.52-7.15c1.84-.21,3.29.61,3.49,2.55s-1.23,1.7-2.56,1.78c-3.23.2-3.33.42-2.23,3.68.72,2.12,1.51,4.22,2.16,6.36s.85,4.45-1.67,5.85A6.68,6.68,0,0,1,395.76,685.76Z"/><path class="cls-15" d="M278.14,687.17c-2.22-.91-2.62-2.17-2.16-4a14.65,14.65,0,0,0-.49-9.51c-.61-1.47-1.12-3.14.59-4.48,2.62.45,1.66,3.29,3.16,4.7,1.76-2.31,3.71-4.42,6.59-5.3,1.54-.48,3.16-.65,3.72,1.26s-1.18,2.26-2.47,2.43c-5.15.68-6.35,4.74-7.43,8.74A60.09,60.09,0,0,1,278.14,687.17Z"/><path class="cls-15" d="M362.42,669.2c2.3.41,1.55,2.92,2.84,4.11,1.4-.37,2-1.76,3-2.58a9.22,9.22,0,0,1,5.35-2.4,2.2,2.2,0,0,1,2.2,1.69,1.28,1.28,0,0,1-1.05,1.69c-7.58,1-8.54,7-9.64,12.82a14.31,14.31,0,0,1-.44,1.8c-.07.2-.33.34-.7.68-1.92-.51-2.25-1.89-1.8-3.64a16.17,16.17,0,0,0-.5-9.89C360.87,671.33,361,671.27,362.42,669.2Z"/><path class="cls-14" d="M294.55,591a3.74,3.74,0,0,1-3.05-4.38c.31-3.48-.23-6.89,1.18-10.49,1.18-3,.24-6.8.24-10.06-2.38-1.26-4.52,1.45-6.47-1.05-1.18,2.42-2.77,4-2.51,6.46a1.2,1.2,0,0,1-1,1.39c-.64.15-1.61.08-1.64-.45-.1-2.21-3-3.18-2.38-5.61,2.2,0,2.4,2.3,4,3.36a26.39,26.39,0,0,1,.9-3.4,5.93,5.93,0,0,1,7.13-3.26c3.31.88,4.56,2.62,4.18,6-.41,3.7-1.07,7.39-1.32,11.1A28.79,28.79,0,0,0,294.55,591Z"/><path class="cls-17" d="M616.19,672.89c-.23-4.75.9-9.35,1.48-14a5.07,5.07,0,0,1,.56-1.74,1.63,1.63,0,0,1,2.24-.72c.88.32.92,1.08.7,1.84-1.71,6-1.64,12.26-2.51,18.38-.13.89.17,2.24-1.39,2.12s-1.38-1.36-1.25-2.51S616.14,674,616.19,672.89Z"/><path class="cls-14" d="M285.49,588.8c.12,1.58-.29,3.2.36,4.77,1.6,1.06,3.64-.07,5.73,1.13-3.13,1.48-4.41,3.22-1.28,5.59.13.1-.26.88-.4,1.35-2.74-.54-3.43-2.93-4.33-5a21.29,21.29,0,0,1-1.57-7.1A1.45,1.45,0,0,1,285.49,588.8Z"/><path class="cls-14" d="M271.27,601.6c.09-1.54-.46-3,2.5-2.29,1.91.43,3.71-2.41,5.26-4.1,1.24-1.34-.6-1.8-1-2.66h0c1.17-.15,2.79.58,3-1.49l1.72.07C280.57,596.45,277.89,601.17,271.27,601.6Z"/><path class="cls-12" d="M282.71,591.12l-1.72-.07a2.53,2.53,0,0,1-1.5-1.5c-.62-3.17,3-3.68,3.75-6,.72,0,1.63-.17,2,.62.76,1.62-1.43,1.34-1.51,1.67-.35,2.15,3.11.54,1.75,3a1.45,1.45,0,0,0-1.49.75C283.15,589.73,283.37,590.79,282.71,591.12Z"/><path class="cls-14" d="M289.93,601.6c1-.2,2.23.3,3-.83,1.86-2.72,4.93-3.68,7.6-5.23a14.15,14.15,0,0,1-5.42,6A4.25,4.25,0,0,1,289.93,601.6Z"/><path class="cls-20" d="M617.72,683.33c.92.09,1.51,1,1.52,2.46s-.56,2.19-2,2a2.46,2.46,0,0,1-2.26-2.52C614.94,684,615.72,683.2,617.72,683.33Z"/><path class="cls-14" d="M298.9,590.08c.16,1.31.11,2.39-1.67,2.51-1.18.08-2.48.84-2.64-1.18C296.43,592.27,297.46,590.52,298.9,590.08Z"/><path class="cls-9" d="M319.24,540.05c.89,0,1.84-.12,2.35.9a.86.86,0,0,1-.1.59H320C319.46,541.19,318.38,541.1,319.24,540.05Z"/><path class="cls-14" d="M269.64,601.58h1.65C270.74,602.22,270.19,602.14,269.64,601.58Z"/><path class="cls-21" d="M404.83,625.43a18.81,18.81,0,0,1,6.8-12.19C411.79,618.06,408.54,624.16,404.83,625.43Z"/><path class="cls-22" d="M523.33,591.83a4,4,0,0,1-2.35-3.94,18.18,18.18,0,0,1,5.82-14.37,3.57,3.57,0,0,1,4.07-1.07c1.6.66,1.52,2.2,1.34,3.54A23,23,0,0,1,523.33,591.83Z"/><path class="cls-23" d="M279.08,575.55l1,1.44c.17,1.3,1.14,2.4.71,3.88-1.24,4.25-2.62,8.41-5.92,11.59l0,0c-2.72.54-3.42-1-3.67-3.32-.46-4.34,1-8.29,2.35-12.26h0C275.16,575.45,276.74,573.9,279.08,575.55Z"/><path class="cls-14" d="M274.91,592.46c3.3-3.18,4.68-7.34,5.92-11.59.43-1.48-.54-2.58-.71-3.88a1.37,1.37,0,0,1,2.15-.58,1.67,1.67,0,0,1,.75,2.22,5.12,5.12,0,0,0,.22,4.92c-.73,2.32-4.37,2.83-3.75,6-2.07.21-1.34,1.83-1.5,3h0Z"/><path class="cls-14" d="M273.57,576.85c-1.39,4-2.81,7.92-2.35,12.26.25,2.3.95,3.86,3.67,3.32,0,.85.31,1.73-.23,2.53-4.17-1.52-4.24-1.52-4.15-6,.06-2.85-.24-5.67-.1-8.53C270.52,578.17,271.21,576.93,273.57,576.85Z"/><path class="cls-14" d="M279.08,575.55c-2.34-1.65-3.92-.1-5.54,1.31-.22-2.61,1.76-3.39,3.9-4.67C277.42,573.78,279.47,573.87,279.08,575.55Z"/><path class="cls-12" d="M259.24,589.55c-1,.58-1.14,2.4-2.79,2.1-.29,0-.77-.45-.75-.65a3.28,3.28,0,0,1,2.79-3A1.46,1.46,0,0,1,259.24,589.55Z"/><path class="cls-14" d="M261.49,589.55c.11-.68-.25-1.52.66-1.94.9.12.83.77.61,1.34s-.78.54-1.27.6Z"/><path class="cls-9" d="M313.24,539.3c-.48-1.19-1.56-2.69,0-3.46,1.13-.54,3.16-1.23,3.72,1.2-.1.94.28,2-.56,2.75C315.24,540.32,314.34,539.18,313.24,539.3Z"/><path class="cls-14" d="M313.53,546.83c.52,1.44.77,2.45-.09,3.4C311.88,549,311.88,549,313.53,546.83Z"/><path class="cls-14" d="M316.72,542.35c-.15.13-.31.38-.46.37a.44.44,0,0,1-.42-.67.61.61,0,0,1,.57-.22C316.55,541.87,316.62,542.16,316.72,542.35Z"/><path class="cls-9" d="M239,565.55a7.92,7.92,0,0,1,8.94-2.91c2.8.84,4.55,3.55,4.56,7.1v4.81H248a3.83,3.83,0,0,0-3-4.5C243,568.5,241.71,566.09,239,565.55Z"/><path class="cls-21" d="M242.1,573.09l1.39-1c2,0,2.65.73,1.82,2.76-.94,2.26-2.69,3.81-4.24,5.56l-1.34.34c-1.17-.89-.56-1.9-.26-2.95C240,576.05,241.28,574.7,242.1,573.09Z"/><path class="cls-14" d="M242.1,573.09c-.82,1.61-2.12,3-2.63,4.76-.3,1-.91,2.06.26,2.95-.57,1.68-1.64,1.76-2.07.18a19.08,19.08,0,0,0-1.43-4.39c-.9-1.66.93-2.81,1.85-4.1A12.37,12.37,0,0,0,242.1,573.09Z"/><path class="cls-14" d="M241.07,580.46c1.55-1.75,3.3-3.3,4.24-5.56.83-2,.18-2.76-1.82-2.76,0-1.07,0-2.09,1.5-2.09a3.83,3.83,0,0,1,3,4.5c-1.56,1.87-3.18,3.7-4.66,5.65C242.57,581.2,241.88,580.82,241.07,580.46Z"/><path class="cls-9" d="M251,577.55c-.14.88.35,1.89-.58,2.64-1,0-1.35-1.35-2.42-1.14C248.2,577,249.83,577.72,251,577.55Z"/><path class="cls-9" d="M248,579.05a1.33,1.33,0,0,1-1.5,1.5A1.33,1.33,0,0,1,248,579.05Z"/><path class="cls-24" d="M596.24,683.87c-1.22-.3-1.56-1.33-1.32-2.72.42-2.42,1.84-4.33,3.29-6.17,1.68-2.12,3.4-1.69,4.3.94C603.34,678.32,599.12,684,596.24,683.87Z"/><path class="cls-9" d="M237.76,564.57c.08,0,.2,0,.24,0a.4.4,0,0,1,.06.29c-.15.31-.31.29-.4,0C237.64,564.78,237.72,564.67,237.76,564.57Z"/><path class="cls-25" d="M488.91,677.81a18.55,18.55,0,0,1,1.81-9c.74-1.47,1.74-2.57,3.5-2s2,2.09,1.95,3.63C496.13,674.06,493.62,676.65,488.91,677.81Z"/><path class="cls-24" d="M384.94,678.07c-1-2.11-.16-3.77.75-5.36.5-.86,1.21-1.67,2.38-1.07a2,2,0,0,1,.91,2.55C388.42,676.26,386.83,677.27,384.94,678.07Z"/><path class="cls-24" d="M510.07,678.19c-.65-2,.15-3.69,1-5.3.49-1,1.31-2,2.66-1.29s1.26,2,.59,3.2A5.84,5.84,0,0,1,510.07,678.19Z"/><path class="cls-24" d="M266.27,672.08c1.89,4.08-1.72,10.45-5.73,10.68-1.9.12-2.6-1.07-1.69-3.29A14.28,14.28,0,0,1,266.27,672.08Z"/><path class="cls-1" d="M475.76,680.1l.57-.9c.43.49.26.87-.2,1.21Z"/><path class="cls-25" d="M568.94,676.88c0,2.78-2.43,6.28-4.35,6.35s-3.19-1.79-3.18-4.65c0-3.66,1.71-6,4.28-5.89C567.78,672.79,569,674.33,568.94,676.88Z"/><path class="cls-25" d="M578.64,678.82c-.06-3.87,1.62-6.25,4.28-6.11a2.8,2.8,0,0,1,2.81,1.93c.9,2.35-.57,7.09-2.71,8.24S578.69,682.19,578.64,678.82Z"/><path class="cls-9" d="M278,592.54c.16-1.16-.57-2.78,1.5-3a2.53,2.53,0,0,0,1.5,1.5C280.78,593.12,279.16,592.39,278,592.54Z"/></svg>